<svg xmlns="http://www.w3.org/2000/svg" viewBox="0 0 500 500"><g id="freepik--background-simple--inject-106"><path d="M170.61,90.7s-67.64,33.35-101.23,85S38.74,294,80,343.69s119.78,43.46,185.65,75.07,138.39,25.45,169.2-40.83-16.17-91.28-24.54-168.15S330.34,20.09,170.61,90.7Z" style="fill:#92E3A9"></path><path d="M170.61,90.7s-67.64,33.35-101.23,85S38.74,294,80,343.69s119.78,43.46,185.65,75.07,138.39,25.45,169.2-40.83-16.17-91.28-24.54-168.15S330.34,20.09,170.61,90.7Z" style="fill:#fff;opacity:0.7000000000000001"></path></g><g id="freepik--Money--inject-106"><path d="M161.93,397.72l-28.12,16.14L119.4,388.75,146.77,373C134,347.32,128.11,319,131,299l38.56-3.76c-2.09,17.88,1.51,39.86,10.12,58.95l41.94-24.07c-9.21-31.76-17.78-68.24,18.13-88.84,26.62-15.27,60.57-9,87.86,28l27.87-16,14.41,25.11-27.37,15.71c9.3,19.7,14.79,40.91,13.93,59.77l-38.1,5.16a118.48,118.48,0,0,0-9-45.91l-42.7,24.49c9.47,31.62,17.75,67.59-17.66,87.91C222.88,440.54,189.33,434.42,161.93,397.72Zm60.86-10.87c8.79-5.05,9.38-15.07,7-28l-34.65,19.89C205.05,389.68,214.75,391.46,222.79,386.85Zm35.74-77.93,35.66-20.46c-10.65-11.58-21-12.67-29.24-7.92C256.16,285.58,255.71,295.86,258.53,308.92Z" style="fill:#fff;stroke:#263238;stroke-linecap:round;stroke-linejoin:round"></path><polygon points="118.86 411.71 133.81 413.86 164.5 397.1 146.99 395.57 118.86 411.71" style="fill:#fff;stroke:#263238;stroke-linecap:round;stroke-linejoin:round"></polygon><polygon points="195.09 378.71 180.14 376.55 214.8 356.67 227.54 361.25 195.09 378.71" style="fill:#fff;stroke:#263238;stroke-linecap:round;stroke-linejoin:round"></polygon><polygon points="251.72 335.49 266.66 337.64 305.78 315.45 299.27 307.23 294.41 310.99 251.72 335.49" style="fill:#fff;stroke:#263238;stroke-linecap:round;stroke-linejoin:round"></polygon><path d="M147,395.57l-28.13,16.14-14.4-25.11,27.37-15.71c-12.76-25.73-18.66-54.05-15.79-74.06l38.57-3.77c-2.09,17.89,1.5,39.86,10.12,59L206.67,328c-9.21-31.76-17.79-68.24,18.13-88.84,26.62-15.28,60.57-9.05,87.86,28l27.87-16,14.41,25.12L327.57,292c9.3,19.7,14.79,40.92,13.93,59.78l-38.1,5.16a118.35,118.35,0,0,0-9-45.92l-42.69,24.5c9.46,31.62,17.75,67.59-17.66,87.91C207.94,438.38,174.39,432.26,147,395.57Zm60.86-10.88c8.79-5,9.38-15.06,7-28l-34.66,19.88C190.11,387.53,199.81,389.31,207.85,384.69Zm35.74-77.92,35.66-20.46c-10.65-11.58-21-12.68-29.25-7.92C241.21,283.43,240.77,293.7,243.59,306.77Z" style="fill:#263238;stroke:#263238;stroke-linecap:round;stroke-linejoin:round"></path><polygon points="340.53 251.15 355.47 253.31 369.88 278.42 354.94 276.27 340.53 251.15" style="fill:#fff;stroke:#263238;stroke-linecap:round;stroke-linejoin:round"></polygon><polygon points="342.51 294.13 327.57 291.97 354.94 276.27 369.88 278.42 342.51 294.13" style="fill:#fff;stroke:#263238;stroke-linecap:round;stroke-linejoin:round"></polygon><polygon points="303.4 356.91 318.34 359.06 356.44 353.9 341.5 351.75 303.4 356.91" style="fill:#fff;stroke:#263238;stroke-linecap:round;stroke-linejoin:round"></polygon><path d="M154.61,293.06l14.94,2.16s-2.93,25.28,6.9,49.77l-11.72,7S152.26,330.57,154.61,293.06Z" style="fill:#fff;stroke:#263238;stroke-linecap:round;stroke-linejoin:round"></path></g><g id="freepik--Clouds--inject-106"><path d="M158.92,225.3c-2.87-1.57-4.18-.27-5.22-1.57s2.87-4.71-5-8.1c0,0-.52-7.32-11.24-7.58s-7.84,7.31-10.71,9.14-3.66-1-6.54.79-1.57,5.49-3.92,6-5.49-2.35-8.36-.52-2.87,3.39-4.18,3.39-3.92-1-5.49,0-3.4,2.36-3.4,2.36H161S161.8,226.86,158.92,225.3Z" style="fill:none;stroke:#263238;stroke-miterlimit:10"></path><path d="M395.92,231.3c-2.87-1.57-4.18-.27-5.22-1.57s2.87-4.71-5-8.1c0,0-.52-7.32-11.24-7.58s-7.84,7.31-10.71,9.14-3.66-1-6.54.79-1.57,5.49-3.92,6-5.49-2.35-8.36-.52-2.88,3.39-4.18,3.39-3.92-1-5.49,0-3.4,2.36-3.4,2.36H398S398.8,232.86,395.92,231.3Z" style="fill:none;stroke:#263238;stroke-miterlimit:10"></path><path d="M238.12,125.42c-6.56-3.58-9.55-.6-11.93-3.58s6.56-10.74-11.33-18.49c0,0-1.2-16.7-25.65-17.29s-17.89,16.69-24.45,20.87-8.35-2.39-14.91,1.79-3.58,12.52-8.95,13.72-12.52-5.37-19.08-1.2-6.56,7.76-9.54,7.76-9-2.39-12.53,0S92,134.36,92,134.36H242.89S244.68,129,238.12,125.42Z" style="fill:none;stroke:#263238;stroke-miterlimit:10"></path></g><g id="freepik--Water--inject-106"><g style="opacity:0.43"><path d="M460,445V330.6c-6.67-1.42-8.78-4.77-18.77-4.77-12.65,0-12.65,5.39-25.31,5.39s-12.65-5.39-25.31-5.39-12.66,5.39-25.31,5.39-12.66-5.39-25.31-5.39-12.66,5.39-25.31,5.39-12.66-5.39-25.32-5.39-12.65,5.39-25.31,5.39-12.66-5.39-25.31-5.39-12.66,5.39-25.31,5.39-12.66-5.39-25.32-5.39-12.65,5.39-25.31,5.39-12.66-5.39-25.31-5.39-12.66,5.39-25.31,5.39-12.66-5.39-25.31-5.39-12.66,5.39-25.31,5.39c-7.2,0-10.31-1.75-14-3.25V445Z" style="fill:#92E3A9"></path><path d="M460,445V330.6c-6.67-1.42-8.78-4.77-18.77-4.77-12.65,0-12.65,5.39-25.31,5.39s-12.65-5.39-25.31-5.39-12.66,5.39-25.31,5.39-12.66-5.39-25.31-5.39-12.66,5.39-25.31,5.39-12.66-5.39-25.32-5.39-12.65,5.39-25.31,5.39-12.66-5.39-25.31-5.39-12.66,5.39-25.31,5.39-12.66-5.39-25.32-5.39-12.65,5.39-25.31,5.39-12.66-5.39-25.31-5.39-12.66,5.39-25.31,5.39-12.66-5.39-25.31-5.39-12.66,5.39-25.31,5.39c-7.2,0-10.31-1.75-14-3.25V445Z" style="fill:#92E3A9"></path></g><path d="M460,330.6c-6.67-1.42-8.78-4.77-18.77-4.77-12.65,0-12.65,5.39-25.31,5.39s-12.65-5.39-25.31-5.39-12.66,5.39-25.31,5.39-12.66-5.39-25.31-5.39-12.66,5.39-25.31,5.39-12.66-5.39-25.32-5.39-12.65,5.39-25.31,5.39-12.66-5.39-25.31-5.39-12.66,5.39-25.31,5.39-12.66-5.39-25.32-5.39-12.65,5.39-25.31,5.39-12.66-5.39-25.31-5.39-12.66,5.39-25.31,5.39-12.66-5.39-25.31-5.39-12.66,5.39-25.31,5.39c-7.2,0-10.31-1.75-14-3.25" style="fill:none;stroke:#263238;stroke-miterlimit:10;stroke-width:2px"></path></g><g id="freepik--Character--inject-106"><path d="M279.66,145.62s22.15,29.25,23.63,32.71-2,6.65-3.75,7.83-5.83,1.05-9.48-1.74-18.38-21-18.38-21-1.59-12,.59-15.86S277.22,143.19,279.66,145.62Z" style="fill:#263238;stroke:#263238;stroke-linecap:round;stroke-linejoin:round"></path><path d="M307.57,235.65s-.22,12.86.59,14.77,4,1.8,5.53,1.53,6.05-2,7.68-1.84,13.11-.22,15.8-1.84c2.35-1.43,3.17-2.61-.09-3.72s-9.06-1.17-12.33-2.37c-2.93-1.07-7.23-7.17-7.23-7.17Z" style="fill:#263238;stroke:#263238;stroke-linecap:round;stroke-linejoin:round"></path><path d="M281.49,189.76s29.2-13.24,33.5-9.66,8.61,55.65,8.61,55.65l-17.07,3.06-6.85-42s-19.09,22.41-29.53,27.95-14.48,6-23.63-.34-3.69-16.73-3.69-16.73Z" style="fill:#92E3A9;stroke:#263238;stroke-linecap:round;stroke-linejoin:round"></path><path d="M275.88,146.87s4.26,32.84,5.88,40.56,4.06,11.17,4.06,11.17-8.34,2-11.77,3.25-6.05,2-6.05,2a82.32,82.32,0,0,0,1.57-16.75C269.6,177,275.88,146.87,275.88,146.87Z" style="fill:#263238;stroke:#263238;stroke-linecap:round;stroke-linejoin:round"></path><path d="M295.75,157l.07-3.44s9.27-1.89,9.74-5.64a64.65,64.65,0,0,0,.23-9s-4.35,7.64-6.82,9.23-4.59-.09-6.65,3.71a9.2,9.2,0,0,0-1.07,6.83l-2.64,1.84s6.8,20.06,7.42,22.24.53,4.25,5.81,3.08,6.76-4.42,5.24-7.81-9.37-21.65-9.37-21.65Z" style="fill:#263238;stroke:#263238;stroke-linecap:round;stroke-linejoin:round"></path><polygon points="280.52 144.03 283.99 150.57 283.27 156.14 277.54 146.57 280.52 144.03" style="fill:#fff;stroke:#263238;stroke-linecap:round;stroke-linejoin:round"></polygon><path d="M281.51,149a82.43,82.43,0,0,1-.53,16.69c-1.24,9.1-2.75,21.4-2.33,25.33s.92,7.82-2.5,9.74-27.87,12.61-35.82,14.61-7.55-3.8-7.9-5.75,1.76-30.1,9-45.72c0,0,6.92-17.28,15.18-23.92s15.15-5,19.86-2.7S281.51,149,281.51,149Z" style="fill:#fff;stroke:#263238;stroke-linecap:round;stroke-linejoin:round"></path><path d="M280.9,124l-8.84,6.85,5.7,17.74s3.15-2.85,4.26-3.05,4.35-1.24,4.35-1.24,4.54-16.83,3.74-21.26S280.9,124,280.9,124Z" style="fill:#fff;stroke:#263238;stroke-linecap:round;stroke-linejoin:round"></path><polygon points="273.24 129.69 281.51 149.03 279.24 154.25 269.55 130.81 273.24 129.69" style="fill:#fff;stroke:#263238;stroke-linecap:round;stroke-linejoin:round"></polygon><path d="M311.65,239.27S312,249,311,251.05s1.53,3.39,5.23,3.64,9.23.41,13.27,1.28,12-1.92,12.62-3.63-1.72-2-8.1-5.64a39.78,39.78,0,0,1-11.64-10,38.1,38.1,0,0,1-2.41-3.23Z" style="fill:#fff;stroke:#263238;stroke-linecap:round;stroke-linejoin:round"></path><path d="M334,246.7a39.43,39.43,0,0,1-10.5-8.67,1.7,1.7,0,0,0-1.07,1.59c-.08,2.07.09,4.33.09,4.33l-10.84.48c0,2.69-.19,5.62-.7,6.62-1,2,1.53,3.39,5.23,3.64s9.23.41,13.27,1.28,12-1.92,12.62-3.63S340.41,250.36,334,246.7Z" style="fill:#263238;stroke:#263238;stroke-linecap:round;stroke-linejoin:round"></path><path d="M233.41,215.09s1.28,8.46,4.76,13.79,10.23,7.32,24.2,2.29,24.74-15.19,27.48-17.74,7.62-7.31,7.62-7.31.46,1.29,1.12,1.17a17.43,17.43,0,0,0,2-.58l10,36.43,18.21-9.45s-17.87-40.95-19.31-43.9-1.36-5-6.13-4.85S256.63,206.81,253.87,208s-7.25-2.13-11.68-1.34S233.45,212.79,233.41,215.09Z" style="fill:#92E3A9;stroke:#263238;stroke-linecap:round;stroke-linejoin:round"></path><line x1="297.47" y1="206.12" x2="303.36" y2="200.71" style="fill:#fff;stroke:#263238;stroke-linecap:round;stroke-linejoin:round"></line><path d="M271.24,130.05s6.27,15.81,6.31,22.44-2.74,35.73-2.69,39.84a18.69,18.69,0,0,1-.44,5.5s-8.57,8.12-22.67,22.11c-3.9,3.86-7.2,3-7.2,3l-2-13.16.3,13.7a15,15,0,0,1-7.8.59c-4.71-.75-10.64-1.81-10.64-1.81s6.61-21,7.64-30.87c2.53-24.23,4.83-31.26,12.44-44.05C250.18,137.73,261.71,131.76,271.24,130.05Z" style="fill:#263238;stroke:#263238;stroke-linecap:round;stroke-linejoin:round"></path><path d="M310.76,126s-1.36,8.63-3.12,9.6a27.39,27.39,0,0,0-3.73,2.6l-1.24,5.71-4.69.84s-1.79,2.58-3.93,3.29-3.93,3.29-6.51,1.49-7-10.36-7.16-12.92,2.44-9.8,2.44-9.8A17.44,17.44,0,0,1,290,120c5.29-2.89,7.09-5.47,14.31-4.83S310.76,126,310.76,126Z" style="fill:#fff;stroke:#263238;stroke-linecap:round;stroke-linejoin:round"></path><path d="M304.74,132.73a8.46,8.46,0,0,0-5.11.51" style="fill:none;stroke:#263238;stroke-linecap:round;stroke-linejoin:round"></path><path d="M298.41,136.35s3.11-1.19,3.59,1.2" style="fill:none;stroke:#263238;stroke-linecap:round;stroke-linejoin:round"></path><path d="M287,125.05s-2.68,3.06-.63,3.66,3.46,1.32,4.49-.16l2.82-4.05s6.45,1.75,7.42,0-3.26-5.55-.44-6.06,8.39,7.21,11.71,9.52,7.53.59,7.54-3a7.72,7.72,0,0,0-2.63-5.66s4.54,3.7,4.44-.48-4.81-8.82-10.41-9.43-5.46-1.79-5.46-1.79-3.06-4.44-11.67-3.86-14.39,13.89-14.91,16.4a21.16,21.16,0,0,0,.14,7.56S283.17,121.54,287,125.05Z" style="fill:#263238;stroke:#263238;stroke-linecap:round;stroke-linejoin:round"></path><path d="M285.8,130.76s2.66-8.55.19-9.72-7.34,2.28-7.09,5.47,3.82,5.12,3.82,5.12" style="fill:#fff;stroke:#263238;stroke-linecap:round;stroke-linejoin:round"></path><path d="M289.3,159.31s-.26-9.11,0-10.3,4.32-4,5.13-4.58,3.24-4.93,4.5-4.24.4,2.22.4,2.22l-1.61,1.2,3.42-1.3s3.56-5.67,4.41-6.05.28,1.55.26,2.7-.85,6.79-1.53,8a7.87,7.87,0,0,1-2.49,2.74c-1.39,1.16-7.22,3.12-7.84,3.46s.59,5.85.59,5.85Z" style="fill:#fff;stroke:#263238;stroke-linecap:round;stroke-linejoin:round"></path><path d="M254.81,167.32s4.55,2.39,6.38,3.66,24.94,23,29.6,22.15,8.61-4.29,8.8-9.59-1.8-29.19-1.8-29.19l-10.66,3.06-1,16s-11.61-20.11-13.72-22.94-4.69-8.31-11.49-6.63a7.85,7.85,0,0,0-6.34,8" style="fill:#263238;stroke:#263238;stroke-linecap:round;stroke-linejoin:round"></path><line x1="275.33" y1="184.19" x2="253" y2="166.85" style="fill:none;stroke:#fff;stroke-linecap:round;stroke-linejoin:round"></line><line x1="260.33" y1="172.52" x2="246.33" y2="171.19" style="fill:none;stroke:#fff;stroke-linecap:round;stroke-linejoin:round"></line><path d="M276.67,157.19s-6.34-10-11-12.67a12.64,12.64,0,0,0-13.67.67" style="fill:none;stroke:#fff;stroke-linecap:round;stroke-linejoin:round"></path><line x1="298.33" y1="160.19" x2="299.33" y2="184.85" style="fill:none;stroke:#fff;stroke-linecap:round;stroke-linejoin:round"></line><path d="M274.42,197.83s-3.25-.57-11.18,3.15a89.78,89.78,0,0,0-14.72,8.94" style="fill:none"></path></g></svg>