<?xml version="1.0" encoding="utf-8"?>
<!-- Generator: Adobe Illustrator 18.0.0, SVG Export Plug-In . SVG Version: 6.00 Build 0)  -->
<!DOCTYPE svg PUBLIC "-//W3C//DTD SVG 1.1//EN" "http://www.w3.org/Graphics/SVG/1.1/DTD/svg11.dtd">
<svg version="1.1" id="Layer_1" xmlns="http://www.w3.org/2000/svg" xmlns:xlink="http://www.w3.org/1999/xlink" x="0px" y="0px"
	 viewBox="0 0 1280 800" enable-background="new 0 0 1280 800" xml:space="preserve">
<g>
	<path opacity="0.27" fill="#808080" enable-background="new    " d="M648.1,453.7c29.3,0,53-23.7,53-53s-23.7-53-53-53
		s-53,23.7-53,53S618.8,453.7,648.1,453.7z"/>
	<path fill="#FFFFFF" d="M648.1,456.1c-30.6,0-55.4-24.9-55.4-55.4c0-30.6,24.9-55.4,55.4-55.4c30.6,0,55.4,24.9,55.4,55.4
		S678.6,456.1,648.1,456.1z M648.1,350.2c-27.8,0-50.5,22.7-50.5,50.5c0,27.8,22.7,50.5,50.5,50.5c27.8,0,50.5-22.7,50.5-50.5
		C698.6,372.8,675.9,350.2,648.1,350.2z"/>
	<path opacity="0.7" fill="#808080" enable-background="new    " d="M695.6,409.7c0-1.9-1.6-3.4-3.6-3.4h-2.2h-2.7v-60.5h-2.4h-62
		h-2.4V382h-6l-3.7-5.5H579l12.4,53.9h39.7l26.7,15.7l5.1-8.7c0.1,1.8,1.7,3.2,3.6,3.2h2.2h11.6h11.6c2,0,3.6-1.5,3.6-3.4
		L695.6,409.7z"/>
	<path fill="#EDA73F" d="M652.6,380.8h-39.4l-3.7-5.5h-31.6l12.4,53.9h73.1L652.6,380.8z"/>
	<path fill="#FFFFFF" d="M659.5,389.2h-69.2v39.6h69.2V389.2z"/>
	<path fill="#FFCE3B" d="M663.4,429.2h-73.1l14.9-34.5h73.1L663.4,429.2z"/>
	<path fill="#EDA73F" d="M620.5,394.7v29.1h-27.8l-2.4,5.4h73.1l14.9-34.5H620.5z"/>
	<path fill="#D6D6D6" d="M685.8,344.7h-64.3v81.4h64.3V344.7z"/>
	<path fill="#FFFFFF" d="M683.5,344.7h-64.3v81.4h64.3V344.7z"/>
	<path fill="#E1E1E1" d="M666.5,366.7h-43.3v8.6h43.3V366.7z"/>
	<path fill="#E1E1E1" d="M666.5,380.9h-43.3v8.6h43.3V380.9z"/>
	<path fill="#E1E1E1" d="M666.5,395.2h-43.3v8.6h43.3V395.2z"/>
	<path fill="#E1E1E1" d="M666.5,409.4h-43.3v8.6h43.3V409.4z"/>
	<path fill="#E1E1E1" d="M679.5,366.7h-8.6v8.6h8.6V366.7z"/>
	<path fill="#E1E1E1" d="M679.5,380.9h-8.6v8.6h8.6V380.9z"/>
	<path fill="#E1E1E1" d="M679.5,395.2h-8.6v8.6h8.6V395.2z"/>
	<path fill="#C4C4C4" d="M679.5,409.4h-8.6v8.6h8.6V409.4z"/>
	<path fill="#E87152" d="M626.8,351.2h4.3c2.1,0,3,1,3,2.7c0,0.8-0.5,2-1.4,2c1,0.2,1.7,1.1,1.7,2.1c0,2.2-1.1,3-3.1,3H627v-9.8
		H626.8z M630.9,354.8c0.4,0,0.6-0.3,0.6-0.7c0-0.6-0.3-0.8-0.6-0.8h-1.5v1.5H630.9z M631,358.8c0.5,0,0.7-0.4,0.7-0.9s-0.1-1-0.7-1
		h-1.6v1.9H631z"/>
	<path fill="#E87152" d="M635.1,351.2h2.6v5.5c0,1.3,0,2,1.3,2c1.2,0,1.2-0.8,1.2-2v-5.5h2.6v5.5c0,4.3-2.2,4.4-3.9,4.4
		c-1.8,0-3.9,0.1-3.9-4.4v-5.5H635.1z"/>
	<path fill="#E87152" d="M643.9,351.2h4.6c2.7,0,3.4,2.2,3.4,5c0,3.4-1.1,4.9-3.4,4.9h-4.6V351.2z M648.2,358.8c0.8,0,1-0.8,1-2.7
		c0-2.4-0.4-2.7-1-2.7h-1.7v5.4H648.2z"/>
	<path fill="#E87152" d="M655.9,351.1c2.1,0,2.3,0,4.1,0.5v2c-0.1,0-1.6-0.3-3.3-0.3c-1.3,0-1.5,0.6-1.5,2.8c0,2.2,0.1,2.6,1.3,2.6
		c0.8,0,1-0.6,1-0.6v-1h-0.7v-1.6c0.6-0.3,1.5-0.3,2.4-0.3c0.3,0,0.6,0,0.9,0v5.8h-1.8l-0.7-0.7c-0.4,0.5-0.6,0.7-1.7,0.7
		c-2.8,0.2-3.2-2.3-3.2-5C652.6,353,653.2,351.1,655.9,351.1z"/>
	<path fill="#E87152" d="M661,353.5c0-2,1.6-2.3,2.5-2.3c0,0,2.8,0,4.4,0.2v2.2h-3.6c-0.7,0-0.7,0.4-0.7,0.8v0.6l3.6,0.1v2.2
		l-3.6,0.1v0.6c0,0.7,0.4,0.7,0.8,0.7h3.5v2.2c-1.4,0.2-4.3,0.2-4.3,0.2c-0.9,0-2.6-0.1-2.6-2.2V353.5z"/>
	<path fill="#E87152" d="M668.4,351.2h7.6v2.3h-2.6v7.5h-2.6v-7.5h-2.5v-2.3H668.4z"/>
	<path fill="#6CB880" d="M676.3,423.8l-1.1,0.7l-20.8-34.2l1.2-0.7L676.3,423.8z"/>
	<path fill="#82DE9A" d="M654.4,390.3l-18,10.9l20.7,34.2l18-10.9L654.4,390.3z"/>
	<path fill="#447A52" d="M642.4,402.7l10.5-6.4l16.2,26.7l-10.5,6.4L642.4,402.7z M638.4,401.8l19.2,31.7l15.5-9.4l-19.2-31.7
		L638.4,401.8z"/>
	<path fill="#447A52" d="M654.4,428.2c2.9-1.8,6.7-0.8,8.5,2.1l-5.3,3.2L654.4,428.2z"/>
	<path fill="#447A52" d="M641.6,407c2.9-1.8,3.9-5.6,2.1-8.5l-5.3,3.2L641.6,407z"/>
	<path fill="#447A52" d="M670,418.8c-2.9,1.8-3.8,5.6-2.1,8.5l5.3-3.2L670,418.8z"/>
	<path fill="#447A52" d="M657.1,397.6c-2.9,1.8-6.7,0.8-8.5-2.1l5.3-3.2L657.1,397.6z"/>
	<path fill="#447A52" d="M660.1,419.8c-1.4,0.8-1.8,2.6-1,4c0.8,1.4,2.6,1.8,4,1c1.4-0.8,1.8-2.6,1-4
		C663.3,419.4,661.5,418.9,660.1,419.8z"/>
	<path fill="#447A52" d="M652.9,408.2c-2.6,1.6-3.4,4.9-1.8,7.5c1.6,2.6,4.9,3.4,7.5,1.8c2.6-1.6,3.4-4.9,1.8-7.5
		C658.9,407.5,655.5,406.7,652.9,408.2z"/>
	<path fill="#447A52" d="M649.2,401.8c-1.4,0.8-1.8,2.6-1,4c0.8,1.4,2.6,1.8,4,1c1.4-0.8,1.8-2.6,1-4
		C652.4,401.4,650.6,400.9,649.2,401.8z"/>
	<path fill="#75C78A" d="M655.5,415.7c-1.1,0.7-1.9,0.2-2.5-0.6l-0.7,0.4l-0.5-0.8l0.7-0.4c-0.3-0.6-0.5-1.1-0.6-1.5l1-0.6
		c0.2,0.5,0.7,1.4,1,1.8c0.3,0.5,0.5,0.7,0.9,0.4l0.2-0.1c0.3-0.2,0.4-0.4,0.1-0.9l-0.4-0.6c-0.7-1.2,0.1-2,0.7-2.4l0.3-0.2
		c1.4-0.8,2.1-0.2,2.6,0.6l0.7-0.4l0.5,0.8l-0.7,0.4c0.4,0.7,0.5,0.9,0.6,1.5l-1,0.6c-0.2-0.3-0.6-1.2-1-1.9
		c-0.2-0.3-0.4-0.6-0.8-0.4l-0.2,0.1c-0.3,0.2-0.4,0.4-0.2,0.8l0.4,0.6c0.9,1.4-0.2,2.2-0.7,2.5L655.5,415.7z"/>
	<path fill="#6CB880" d="M668.1,425.6l-0.6,1.1L633,406.5l0.7-1.2L668.1,425.6z"/>
	<path fill="#82DE9A" d="M633,406.5l-10.7,18.2l34.5,20.3l10.7-18.2L633,406.5z"/>
	<path fill="#447A52" d="M628.3,423.1l6.2-10.6l26.9,15.8l-6.2,10.6L628.3,423.1z M624.3,424.1l32,18.8l9.2-15.7l-32-18.8
		L624.3,424.1z"/>
	<path fill="#447A52" d="M650.9,439.8c1.7-2.9,5.5-3.9,8.4-2.2l-3.1,5.3L650.9,439.8z"/>
	<path fill="#447A52" d="M629.6,427.3c1.7-2.9,0.7-6.7-2.2-8.5l-3.1,5.3L629.6,427.3z"/>
	<path fill="#447A52" d="M660.1,424.1c-1.7,2.9-0.7,6.7,2.2,8.4l3.1-5.3L660.1,424.1z"/>
	<path fill="#447A52" d="M638.8,411.6c-1.7,2.9-5.5,3.9-8.4,2.2l3.1-5.3L638.8,411.6z"/>
	<path fill="#447A52" d="M652,429.7c-0.8,1.4-0.4,3.2,1,4c1.4,0.8,3.2,0.3,4-1c0.8-1.4,0.4-3.2-1-4
		C654.6,427.8,652.8,428.3,652,429.7z"/>
	<path fill="#447A52" d="M644.9,431.1c3,0,5.4-2.4,5.4-5.4s-2.4-5.4-5.4-5.4c-3,0-5.4,2.4-5.4,5.4S641.9,431.1,644.9,431.1z"/>
	<path fill="#447A52" d="M633.8,419c-0.8,1.4-0.4,3.2,1,4s3.2,0.3,4-1c0.8-1.4,0.3-3.2-1-4C636.4,417.2,634.6,417.6,633.8,419z"/>
	<path fill="#75C78A" d="M646,428.3c-0.7,1.1-1.6,1.1-2.5,0.6l-0.4,0.7l-0.8-0.4l0.4-0.7c-0.5-0.4-0.9-0.7-1.3-1.1l0.6-1
		c0.5,0.3,1.3,0.9,1.7,1.1c0.5,0.3,0.7,0.4,1-0.1l0.1-0.2c0.2-0.3,0.1-0.6-0.3-0.8L644,426c-1.2-0.7-0.9-1.8-0.5-2.5l0.2-0.3
		c0.8-1.4,1.8-1.2,2.6-0.7l0.4-0.7l0.8,0.4l-0.4,0.7c0.6,0.4,0.8,0.6,1.3,1.1l-0.6,1c-0.3-0.2-1.1-0.7-1.8-1.2
		c-0.3-0.2-0.7-0.3-0.9,0.1l-0.1,0.2c-0.2,0.3-0.2,0.5,0.2,0.7l0.6,0.4c1.4,0.8,0.9,2.1,0.6,2.5L646,428.3z"/>
	<path fill="#EDA73F" d="M653.9,424.7c-1.6,4,0.4,8.6,4.5,10.1l5.7-14.6C660,418.7,655.4,420.7,653.9,424.7z"/>
	<path fill="#EDA73F" d="M668.4,430.4c-0.3,0.8-0.7,1.5-1.2,2.1c-0.7,0.9-1.6,1.6-2.5,2.1c-1.5,0.8-3.2,1.1-5,0.7
		c-0.5-0.1-1-0.2-1.4-0.4l5.7-14.6c0.2,0.1,0.3,0.1,0.5,0.2C668.2,422.2,669.9,426.5,668.4,430.4z"/>
	<path fill="#FFCE3B" d="M659.7,434.8c4.3,0,7.8-3.5,7.8-7.8s-3.5-7.8-7.8-7.8c-4.3,0-7.8,3.5-7.8,7.8S655.4,434.8,659.7,434.8z"/>
	<path fill="#EDA73F" d="M653.7,424.6c-1.3,3.3,0.4,7.1,3.7,8.4l4.7-12.1C658.7,419.6,655,421.3,653.7,424.6z"/>
	<path fill="#F59407" d="M662.1,420.9l-4.7,12.1c3.3,1.3,7.1-0.4,8.4-3.7C667.1,426,665.4,422.2,662.1,420.9z"/>
	<path fill="#FFCE3B" d="M657.9,424.3c0.6-1.4,1.6-1.6,2.7-1.2l0.3-0.9l1,0.4l-0.3,0.9c0.7,0.3,1.2,0.6,1.6,1l-0.5,1.3
		c-0.6-0.3-1.6-0.8-2.1-1c-0.6-0.2-0.9-0.3-1.1,0.3l-0.1,0.2c-0.2,0.4-0.1,0.7,0.5,0.9l0.8,0.3c1.5,0.6,1.3,1.9,1,2.7l-0.2,0.4
		c-0.7,1.7-1.8,1.7-2.8,1.3l-0.3,0.8l-1-0.4l0.3-0.8c-0.8-0.3-1.1-0.5-1.6-1l0.5-1.3c0.4,0.2,1.4,0.6,2.3,1c0.4,0.2,0.8,0.2,1-0.2
		l0.1-0.3c0.1-0.4,0.1-0.6-0.4-0.8l-0.8-0.3c-1.8-0.7-1.4-2.2-1.1-2.8L657.9,424.3z"/>
	<g opacity="0.3">
		<path opacity="0.3" fill="#FFCE3B" enable-background="new    " d="M660.7,419.2l-7.4,3.2c-0.4,0.5-0.7,1.1-0.9,1.7l10.1-4.4
			C662,419.5,661.3,419.3,660.7,419.2z"/>
		<path opacity="0.3" fill="#FFCE3B" enable-background="new    " d="M664.9,421.2l-13,5.7c0,1.5,0.4,2.9,1.1,4.1l14.2-6.3
			C666.8,423.4,666,422.1,664.9,421.2z"/>
	</g>
	<path fill="#153152" d="M694.4,408.5c0-1.9-1.6-3.4-3.6-3.4h-11.6h-11.6c-2,0-3.6,1.5-3.6,3.4l0.1,27.5c0,1.9,1.6,3.4,3.6,3.4h11.6
		h11.6c2,0,3.6-1.5,3.6-3.4L694.4,408.5z"/>
	<path fill="#193A61" d="M692.2,408.5c0-1.9-1.6-3.4-3.6-3.4H677h-11.6c-2,0-3.6,1.5-3.6,3.4l0.1,27.5c0,1.9,1.6,3.4,3.6,3.4h11.6
		h11.6c2,0,3.6-1.5,3.6-3.4L692.2,408.5z"/>
	<path fill="#C4C4C4" d="M688.5,420.2h-2.6c-1.4,0-2.6,1.1-2.6,2.6v8.7v2.4v0.3c0,1.4,1.1,2.6,2.6,2.6h2.6c1.4,0,2.6-1.1,2.6-2.6
		v-0.3v-2.4v-8.7C691.1,421.3,689.9,420.2,688.5,420.2z"/>
	<path fill="#C4C4C4" d="M671.7,425.4c0,1.4-1.1,2.6-2.6,2.6h-2.6c-1.4,0-2.6-1.1-2.6-2.6v-2.6c0-1.4,1.1-2.6,2.6-2.6h2.6
		c1.4,0,2.6,1.1,2.6,2.6V425.4z"/>
	<path fill="#C4C4C4" d="M671.7,434c0,1.4-1.1,2.6-2.6,2.6h-2.6c-1.4,0-2.6-1.1-2.6-2.6v-2.6c0-1.4,1.1-2.6,2.6-2.6h2.6
		c1.4,0,2.6,1.1,2.6,2.6V434z"/>
	<path fill="#C4C4C4" d="M681.4,425.4c0,1.4-1.1,2.6-2.6,2.6h-2.6c-1.4,0-2.6-1.1-2.6-2.6v-2.6c0-1.4,1.1-2.6,2.6-2.6h2.6
		c1.4,0,2.6,1.1,2.6,2.6V425.4z"/>
	<path fill="#C4C4C4" d="M681.4,434c0,1.4-1.1,2.6-2.6,2.6h-2.6c-1.4,0-2.6-1.1-2.6-2.6v-2.6c0-1.4,1.1-2.6,2.6-2.6h2.6
		c1.4,0,2.6,1.1,2.6,2.6V434z"/>
	<path fill="#FFFFFF" d="M687.5,420.2h-2.6c-1.4,0-2.6,1.1-2.6,2.6v8.7v2.4v0.3c0,1.4,1.1,2.6,2.6,2.6h2.6c1.4,0,2.6-1.1,2.6-2.6
		v-0.3v-2.4v-8.7C690.1,421.3,688.9,420.2,687.5,420.2z"/>
	<path fill="#FFFFFF" d="M670.8,425.4c0,1.4-1.1,2.6-2.6,2.6h-2.6c-1.4,0-2.6-1.1-2.6-2.6v-2.6c0-1.4,1.1-2.6,2.6-2.6h2.6
		c1.4,0,2.6,1.1,2.6,2.6V425.4z"/>
	<path fill="#FFFFFF" d="M670.8,434c0,1.4-1.1,2.6-2.6,2.6h-2.6c-1.4,0-2.6-1.1-2.6-2.6v-2.6c0-1.4,1.1-2.6,2.6-2.6h2.6
		c1.4,0,2.6,1.1,2.6,2.6V434z"/>
	<path fill="#FFFFFF" d="M680.4,425.4c0,1.4-1.1,2.6-2.6,2.6h-2.6c-1.4,0-2.6-1.1-2.6-2.6v-2.6c0-1.4,1.1-2.6,2.6-2.6h2.6
		c1.4,0,2.6,1.1,2.6,2.6V425.4z"/>
	<path fill="#FFFFFF" d="M680.4,434c0,1.4-1.1,2.6-2.6,2.6h-2.6c-1.4,0-2.6-1.1-2.6-2.6v-2.6c0-1.4,1.1-2.6,2.6-2.6h2.6
		c1.4,0,2.6,1.1,2.6,2.6V434z"/>
	<path fill="#153152" d="M664.4,423.2h1.7v-1.7h1.6v1.7h1.7v1.6h-1.7v1.7h-1.6v-1.7h-1.7V423.2z"/>
	<path fill="#153152" d="M664.6,433.9l1.2-1.2l-1.2-1.2l1.1-1.1l1.2,1.2l1.2-1.2l1.1,1.1l-1.2,1.2l1.2,1.2l-1.1,1.1l-1.2-1.2
		l-1.2,1.2L664.6,433.9z"/>
	<path fill="#153152" d="M674.1,423.2h4.8v1.6h-4.8V423.2z"/>
	<path fill="#5794D9" d="M684,426.6h4.3v1.4H684V426.6z M684,428.8h4.3v1.4H684V428.8z"/>
	<path fill="#153152" d="M674.1,431.9h4.8v1.6h-4.8V431.9z"/>
	<path fill="#153152" d="M676.5,431.3c0.4,0,0.7-0.3,0.7-0.7s-0.3-0.7-0.7-0.7c-0.4,0-0.7,0.3-0.7,0.7S676.1,431.3,676.5,431.3z"/>
	<path fill="#153152" d="M676.5,435.5c0.4,0,0.7-0.3,0.7-0.7c0-0.4-0.3-0.7-0.7-0.7c-0.4,0-0.7,0.3-0.7,0.7
		C675.8,435.2,676.1,435.5,676.5,435.5z"/>
	<path fill="#58C574" d="M690.5,413.2c0,1.4-1.2,2.6-2.6,2.6H666c-1.4,0-2.6-1.2-2.6-2.6v-3.1c0-1.4,1.2-2.6,2.6-2.6h22
		c1.4,0,2.6,1.2,2.6,2.6L690.5,413.2L690.5,413.2z"/>
	<path fill="#FFFFFF" d="M677.4,413.5h1.9c0.4,0,0.4-0.2,0.4-0.4v-0.2c0-0.2-0.1-0.4-0.3-0.4H679c-0.2,0-0.3,0.1-0.3,0.3h-1.3
		l0.2-3.3h3.3v1.2h-2v0.7c0.2-0.1,0.4-0.1,0.5-0.1c0.2,0,0.4,0,0.5,0c0.8,0.1,1.2,0.6,1.2,1.4v0.7c0,1-0.7,1.4-1.4,1.4
		c-0.9,0-1.3,0-2.2-0.2L677.4,413.5L677.4,413.5z"/>
	<path fill="#FFFFFF" d="M682.8,409.5c0.7-0.1,1.7,0,2.4,0.1v1.1h-1.6c-0.6,0-0.6,0.4-0.6,0.9c0.3-0.1,0.5-0.1,1.1-0.1
		c1,0,1.3,0.6,1.3,1.3v0.6c0,0.9-0.5,1.3-1.4,1.3h-1c-0.9,0-1.4-0.5-1.4-2.7C681.6,410.1,682.2,409.6,682.8,409.5z M683.5,413.5h0.1
		c0.2,0,0.3-0.1,0.3-0.3V413c0-0.3,0-0.4-0.3-0.4H683C683,413.4,683.1,413.5,683.5,413.5z"/>
	<path fill="#FFFFFF" d="M685.7,409.5h3.4l0.3,0.6l-1.6,4.7h-1.5l1.4-4h-2.1L685.7,409.5L685.7,409.5z"/>
	<path fill="#447A52" d="M690.2,408.7c-0.5-0.4-1.1-0.7-1.8-0.7h-21.9c-1.4,0-2.6,1.2-2.6,2.6v3.2c0,0.5,0.1,1,0.4,1.4
		c-0.5-0.5-0.8-1.1-0.8-1.9v-3.2c0-1.4,1.2-2.6,2.6-2.6H688C688.9,407.5,689.7,408,690.2,408.7z"/>
	<g opacity="0.5">
		<path opacity="0.5" fill="#91CCE1" enable-background="new    " d="M669.7,407.5l-6.2,6.2c0.1,0.6,0.5,1.2,0.9,1.6l7.8-7.8H669.7z
			"/>
		<path opacity="0.5" fill="#91CCE1" enable-background="new    " d="M675.2,407.5l-8.4,8.3h10.3l8.3-8.3H675.2z"/>
	</g>
</g>
</svg>
