<?xml version="1.0" encoding="utf-8"?>
<!-- Generator: Adobe Illustrator 18.0.0, SVG Export Plug-In . SVG Version: 6.00 Build 0)  -->
<!DOCTYPE svg PUBLIC "-//W3C//DTD SVG 1.1//EN" "http://www.w3.org/Graphics/SVG/1.1/DTD/svg11.dtd">
<svg version="1.1" id="Layer_1" xmlns="http://www.w3.org/2000/svg" xmlns:xlink="http://www.w3.org/1999/xlink" x="0px" y="0px"
	 viewBox="0 0 612 792" enable-background="new 0 0 612 792" xml:space="preserve">
<g>
	<g>
		<g opacity="0.22">
			
				<image overflow="visible" opacity="0.42" width="913" height="1726" xlink:href="7D9B2E71.png"  transform="matrix(0.24 0 0 0.24 205.0044 196.8544)">
			</image>
			<g>
				<path fill="#FFFFFF" d="M381,588.9H232c-11,0-20-9-20-20V224.9c0-11,9-20,20-20h149c11,0,20,9,20,20v344.1
					C401,580,392,588.9,381,588.9z"/>
			</g>
		</g>
	</g>
	<g>
		<path fill="#010101" d="M377.3,201.3h-142c-13.3,0-24.1,10.8-24.1,24.1v341.1c0,12.8,10,23.3,22.7,24.1h80v0h63.4
			c13.3,0,24.1-10.8,24.1-24.1V225.5C401.5,212.2,390.6,201.3,377.3,201.3z"/>
	</g>
	<g>
		<g>
			<path fill="#2C2F85" d="M377.3,206.7h-23.1l-4.2,7.4c-2.2,3.9-6.4,6.3-10.8,6.3h-17.6h-30.4h-17.6c-4.5,0-8.6-2.4-10.8-6.3
				l-4.2-7.4h-23.1c-10.4,0-18.8,8.4-18.8,18.8v341.1c0,10.4,8.4,18.8,18.8,18.8h142c10.4,0,18.8-8.4,18.8-18.8V225.5
				C396.1,215.1,387.7,206.7,377.3,206.7z"/>
		</g>
	</g>
	<g>
		<g>
			<path fill="#FFFFFF" d="M379.5,222h-7.6c-0.3,0-0.6-0.3-0.6-0.6l0,0c0-0.3,0.3-0.6,0.6-0.6h7.6c0.3,0,0.6,0.3,0.6,0.6l0,0
				C380.1,221.8,379.9,222,379.5,222z"/>
			<path fill="#FFFFFF" d="M379.5,225.3h-7.6c-0.3,0-0.6-0.3-0.6-0.6l0,0c0-0.3,0.3-0.6,0.6-0.6h7.6c0.3,0,0.6,0.3,0.6,0.6l0,0
				C380.1,225,379.9,225.3,379.5,225.3z"/>
			<path fill="#FFFFFF" d="M379.5,228.6h-7.6c-0.3,0-0.6-0.3-0.6-0.6l0,0c0-0.3,0.3-0.6,0.6-0.6h7.6c0.3,0,0.6,0.3,0.6,0.6l0,0
				C380.1,228.3,379.9,228.6,379.5,228.6z"/>
		</g>
		<path fill="#FFFFFF" d="M237.5,228.5c-0.2,0-0.4-0.1-0.6-0.2l-3.1-2.6c-0.2-0.2-0.3-0.5-0.3-0.7c0-0.3,0.1-0.6,0.3-0.7l3.1-2.6
			c0.4-0.3,1-0.3,1.4,0.1c0.3,0.4,0.3,1-0.1,1.4l-2.2,1.8l2.2,1.8c0.4,0.3,0.5,1,0.1,1.4C238,228.4,237.8,228.5,237.5,228.5z"/>
	</g>
	<g>
		<g>
			<g>
				<g>
					<g>
						
							<image overflow="visible" opacity="0.12" width="396" height="181" xlink:href="7D9B2E77.png"  transform="matrix(0.24 0 0 0.24 261.1335 478.2045)">
						</image>
						<g>
							<linearGradient id="SVGID_1_" gradientUnits="userSpaceOnUse" x1="290.2246" y1="510.1293" x2="342.2245" y2="466.796">
								<stop  offset="0" style="stop-color:#F15B57"/>
								<stop  offset="0.2124" style="stop-color:#F2695F"/>
								<stop  offset="1" style="stop-color:#F6957D"/>
							</linearGradient>
							<path fill="url(#SVGID_1_)" d="M334.5,504.4h-51.7c-5.3,0-9.6-4.3-9.6-9.6l0,0c0-5.3,4.3-9.6,9.6-9.6h51.7
								c5.3,0,9.6,4.3,9.6,9.6l0,0C344.1,500.1,339.8,504.4,334.5,504.4z"/>
						</g>
					</g>
					<text transform="matrix(1 0 0 1 291.8076 497.82)" fill="#FFFFFF" font-family="'Barlow-Medium'" font-size="10">Sign Up</text>
				</g>
				<g>
					<path fill="#FFFFFF" d="M334.5,533.7h-51.7c-5.3,0-9.6-4.3-9.6-9.6l0,0c0-5.3,4.3-9.6,9.6-9.6h51.7c5.3,0,9.6,4.3,9.6,9.6l0,0
						C344.1,529.4,339.8,533.7,334.5,533.7z"/>
					<g>
						<text transform="matrix(1 0 0 1 294.8076 527.1533)" fill="#F0514B" font-family="'Barlow-Medium'" font-size="10">Login</text>
					</g>
				</g>
			</g>
		</g>
	</g>
	<g>
		<g>
			<g>
				<g>
					<g>
						<text transform="matrix(0.9 0 0 1 263.4098 421.2217)" fill="#FFFFFF" font-family="'Barlow-SemiBold'" font-size="8">Stay in shape, stay healthy</text>
					</g>
				</g>
			</g>
		</g>
		<g>
			<g>
				<g>
					<g>
						<text transform="matrix(0.9 0 0 1 272.6949 545.8884)" fill="#FFFFFF" font-family="'Barlow-SemiBold'" font-size="8">Forgot your password?</text>
					</g>
				</g>
			</g>
		</g>
		<g>
			<text transform="matrix(1.1612 0 0 1 219.3232 432.6208)" fill="#FFFFFF" font-family="'JungleFever'" font-size="40.625">DC Ikigai</text>
			
				<image overflow="visible" width="98" height="93" xlink:href="logo.png"  transform="matrix(0.9999 0 0 0.9999 257.0061 290.4776)">
			</image>
			<rect x="271.5" y="258.1" fill="none" width="101.4" height="78.9"/>
		</g>
	</g>
</g>
</svg>
