<?xml version="1.0" encoding="utf-8"?>
<!-- Generator: Adobe Illustrator 18.0.0, SVG Export Plug-In . SVG Version: 6.00 Build 0)  -->
<!DOCTYPE svg PUBLIC "-//W3C//DTD SVG 1.1//EN" "http://www.w3.org/Graphics/SVG/1.1/DTD/svg11.dtd">
<svg version="1.1" id="Layer_1" xmlns="http://www.w3.org/2000/svg" xmlns:xlink="http://www.w3.org/1999/xlink" x="0px" y="0px"
	 viewBox="0 0 612 792" enable-background="new 0 0 612 792" xml:space="preserve">
<g id="freepik--Floor--inject-2">
	<ellipse fill="#F5F5F5" cx="306" cy="551.9" rx="241.2" ry="137"/>
</g>
<g id="freepik--Shadows--inject-2">
	<path fill="#E0E0E0" d="M406.4,638.3l-180-104c-5-2.9-6.7-9.2-3.8-14.2c0.9-1.6,2.2-2.9,3.8-3.8l17.8-11.2c6.2-3.6,13.9-3.6,20.2,0
		l180.1,104c5,2.9,6.7,9.2,3.8,14.2c-0.9,1.6-2.2,2.9-3.8,3.8l-17.8,11.2C420.3,641.9,412.6,641.9,406.4,638.3z"/>
	<ellipse fill="#E6E6E6" cx="132.6" cy="521.1" rx="39.1" ry="22.4"/>
</g>
<g id="freepik--Plants--inject-2">
	<path fill="#FFC100" d="M470.2,548.6l17.1,9.9c0,0-8.8-27.5-4.1-55.2c1.8-10.5,5.5-15.7,6.9-18.5c1.3-2.8,11.6-20.1,2.4-28.1
		c-9.1-7.9-30.3,8-29.2,50.7C463.9,521.4,466.2,535.2,470.2,548.6z"/>
	<path opacity="0.5" fill="#0FDC00" enable-background="new    " d="M470.2,548.6l17.1,9.9c0,0-8.8-27.5-4.1-55.2
		c1.8-10.5,5.5-15.7,6.9-18.5c1.3-2.8,11.6-20.1,2.4-28.1c-9.1-7.9-30.3,8-29.2,50.7C463.9,521.4,466.2,535.2,470.2,548.6z"/>
	<path fill="#FFFFFF" d="M478.2,553.8c-0.3,0-0.5-0.2-0.6-0.4c-0.1-0.2-6.6-18.1-6.4-46.8s15.3-44.4,15.5-44.5
		c0.2-0.2,0.6-0.2,0.9,0c0,0,0,0,0,0c0.2,0.2,0.2,0.6,0,0.9c0,0,0,0,0,0c-0.1,0.1-14.9,15.3-15.1,43.7c-0.2,28.4,6.3,46.2,6.3,46.4
		c0.1,0.3,0,0.7-0.4,0.8C478.3,553.8,478.3,553.8,478.2,553.8z"/>
	<path fill="#0BAB00" d="M477.4,552.8l23.4,13.5c5.1,3,11.6,1.6,15-3.2c1.6-2.4,2.2-5.3,1.8-8.1c-1.1-12.2-6.4-15,0.1-20.4
		c6.5-5.4,8.2-5.8,7.8-11c-0.4-5.2-3.9-7.5-5.6-9.5c-1.7-2.1-6.4-6.4-3.2-12.7c3.2-6.4,7.5-12.5,0.9-15.3
		c-3.9-1.7-10.5,0.6-14.8,5.2c-4.3,4.7-7.9,8-12,9.2c-4.1,1.1-12.7,1.3-12.4,8.4c0.4,7.1,2.3,9.5,0.6,12.7
		C475.9,527.4,462,530.8,477.4,552.8z"/>
	<path fill="#FFFFFF" d="M488.9,560.1c-0.3,0-0.6-0.2-0.6-0.6c0-0.4-3.6-42.4,25.3-70.4c0.3-0.2,0.6-0.2,0.9,0.1
		c0.2,0.2,0.2,0.6,0,0.8c-28.5,27.6-24.9,69-24.9,69.4C489.6,559.8,489.3,560,488.9,560.1L488.9,560.1z"/>
	<path fill="#FFFFFF" d="M493.6,523.9c-0.3,0-0.6-0.2-0.6-0.6c-0.5-6.6-3.7-12.7-8.8-16.8c-0.3-0.2-0.3-0.6-0.2-0.9c0,0,0,0,0,0
		c0.2-0.3,0.6-0.3,0.8-0.2c0,0,0,0,0,0c5.5,4.3,8.9,10.8,9.4,17.7C494.2,523.6,494,523.9,493.6,523.9L493.6,523.9z"/>
	<path fill="#FFFFFF" d="M491.6,531.1c-0.1,0-0.3-0.1-0.4-0.1c-0.3-0.2-0.3-0.6-0.1-0.9c0.3-0.3,7.5-8.3,24.5-6.2
		c0.3,0,0.6,0.4,0.5,0.7c0,0.3-0.3,0.6-0.7,0.5c-16.3-2-23.3,5.7-23.4,5.8C491.9,531.1,491.8,531.1,491.6,531.1z"/>
</g>
<g id="freepik--Device--inject-2">
	<path fill="#455A64" d="M400.9,625.8l-158.3-91.4c-11.2-6.5-20.2-23.8-20.2-38.7v-339c0-14.9,9.1-21.7,20.2-15.3l158.3,91.4
		c11.2,6.5,20.2,23.8,20.2,38.7v339C421.1,625.4,412.1,632.3,400.9,625.8z"/>
	<path fill="#37474F" d="M419.1,222.2l-158.3-91.4c-4.8-2.8-9.2-3.1-12.6-1.4l0,0c-0.4,0.2-0.8,0.5-1.2,0.7l-17.7,10.3
		c3.6-2.1,8.2-2,13.4,1l158.3,91.4c11.2,6.5,20.2,23.8,20.2,38.7v339c0,7.9-2.5,13.5-6.6,16.1l17.5-10.2l0,0
		c4.5-2.4,7.3-8.2,7.3-16.5v-339C439.4,245.9,430.3,228.6,419.1,222.2z"/>
	<path fill="#263238" d="M421.1,271.5v339c0,7.9-2.5,13.5-6.6,16.1l17.5-10.2l0,0c4.5-2.4,7.3-8.2,7.3-16.5v-339L421.1,271.5
		L421.1,271.5z"/>
	<polygon fill="#37474F" points="439.4,287.2 421.1,297.7 421.1,305.9 439.4,295.4 	"/>
	<path fill="#37474F" d="M431.4,341.9L431.4,341.9c-1.6,0.9-2.9-0.1-2.9-2.2V322c0-2.2,1.1-4.3,2.9-5.6l0,0c1.6-0.9,2.9,0,2.9,2.2
		v17.7C434.3,338.5,433.2,340.6,431.4,341.9z"/>
	<path fill="#455A64" d="M428.4,339.7V322c0-2.2,1.1-4.3,2.9-5.6c0.5-0.4,1.3-0.4,1.9-0.2l0,0L431,315l0,0c-0.6-0.3-1.3-0.2-1.9,0.1
		c-1.8,1.3-2.9,3.4-3,5.6v17.7c-0.1,0.9,0.3,1.8,1,2.4l0,0l2.3,1.2l0,0C428.7,341.5,428.3,340.6,428.4,339.7z"/>
	<path fill="#37474F" d="M431.4,384.7L431.4,384.7c-1.6,0.9-2.9,0-2.9-2.2v-17.7c0-2.2,1.1-4.3,2.9-5.6l0,0c1.6-0.9,2.9,0,2.9,2.2
		V379C434.3,381.3,433.2,383.4,431.4,384.7z"/>
	<path fill="#455A64" d="M428.4,382.5v-17.7c0-2.2,1.1-4.3,2.9-5.6c0.5-0.4,1.3-0.4,1.9-0.2l0,0l-2.2-1.2l0,0
		c-0.6-0.3-1.3-0.3-1.9,0.1c-1.8,1.3-2.9,3.4-3,5.6v17.7c-0.1,0.9,0.3,1.8,1,2.4l0,0l2.3,1.2l0,0
		C428.7,384.3,428.3,383.4,428.4,382.5z"/>
	<path fill="#FFC100" d="M395.4,242.4l-155.6-89.9c-2.1-1.2-4.7-0.5-5.9,1.6c-0.4,0.6-0.6,1.4-0.6,2.1v339.6
		c0,11.3,8,25.3,17.9,30.9L403,614.4c2.3,1.3,5.2,0.5,6.5-1.7c0.4-0.7,0.6-1.5,0.6-2.4V267.9C410.1,258.5,403.5,247,395.4,242.4z"/>
	<path opacity="0.9" fill="#FFFFFF" enable-background="new    " d="M395.4,242.4l-155.6-89.9c-2.1-1.2-4.7-0.5-5.9,1.6
		c-0.4,0.6-0.6,1.4-0.6,2.1v339.6c0,11.3,8,25.3,17.9,30.9L403,614.4c2.3,1.3,5.2,0.5,6.5-1.7c0.4-0.7,0.6-1.5,0.6-2.4V267.9
		C410.1,258.5,403.5,247,395.4,242.4z"/>
	<polygon fill="#455A64" points="286.3,176 288.7,186.1 340.3,215.9 349.2,211.1 	"/>
	<path fill="#263238" d="M301.5,185.8c0,1.7-1.2,2.4-2.6,1.5c-1.5-1-2.5-2.7-2.6-4.6c0-1.7,1.2-2.4,2.6-1.5
		C300.4,182.2,301.4,183.9,301.5,185.8z"/>
	<path fill="#263238" d="M336.2,207.2c-0.3,0-0.6-0.1-0.8-0.2l-26.3-14.7c-0.8-0.5-1.1-1.5-0.6-2.3c0.4-0.8,1.4-1,2.2-0.6l26.4,14.7
		c0.8,0.4,1.1,1.4,0.6,2.2C337.4,206.9,336.8,207.2,336.2,207.2z"/>
	<path fill="#FFC100" d="M266,223.2c-1.6-0.9-2.8-0.1-2.8,1.9c0,2.1,1,4,2.8,5.2c0.9,0.6,2.1,0.6,3,0l2.6,4.6
		c-1.8,1-4.1,0.9-5.8-0.3c-4.2-2.6-6.9-7.1-7.1-12c0-4.5,3-6.1,7.2-3.7c2.4,1.5,4.3,3.6,5.6,6.1l-2.6,2
		C268.3,225.5,267.3,224.2,266,223.2z"/>
	<path fill="#FFC100" d="M286.3,238.5c0,4.6-3.1,6.1-7.3,3.7c-4.3-2.6-7.1-7.2-7.3-12.2c0-4.6,3.1-6.1,7.3-3.7
		C283.3,228.9,286,233.5,286.3,238.5z M276.1,232.7c0,2.1,1.1,4.1,2.9,5.3c1.5,0.9,2.7,0,2.7-2.1c0-2.1-1-4-2.7-5.2
		C277.4,229.8,276.1,230.6,276.1,232.7z"/>
	<path fill="#FFC100" d="M291.2,233.6l5.3,11v-7.9l4,2.3v15.4l-3.7-2.1l-5.3-10.9v7.9l-4-2.3v-15.5L291.2,233.6z"/>
	<path fill="#FFC100" d="M313.6,246.6v4l-3.8-2.2v11.4l-4.4-2.6v-11.4l-3.8-2.2v-4L313.6,246.6z"/>
	<path fill="#FFC100" d="M322.2,264.8l-5-2.9l-0.7,1.8l-4.5-2.6l5.6-12.2l4.5,2.6l5.4,18.6l-4.7-2.7L322.2,264.8z M321.1,260.5
		l-1.4-5.3l-1.4,3.7L321.1,260.5z"/>
	<path fill="#FFC100" d="M334.6,262.8c-1.6-0.9-2.8-0.1-2.8,1.9c0,2.1,1,4,2.8,5.2c0.9,0.6,2.1,0.6,3,0l2.6,4.6
		c-1.8,1-4.1,0.9-5.8-0.3c-4.2-2.6-6.9-7.1-7.1-12.1c0-4.5,3.1-6.1,7.2-3.7c2.4,1.5,4.3,3.6,5.7,6.1l-2.6,2
		C337,265.1,335.9,263.8,334.6,262.8z"/>
	<path fill="#FFC100" d="M352.2,268.9v4l-3.8-2.2v11.4l-4.4-2.6v-11.4l-3.8-2.2v-4L352.2,268.9z"/>
	<path fill="#FFC100" d="M365.3,287.8c1.1,0.6,1.9,0.1,1.9-1.4v-8.9l4.4,2.5v8.9c0,4.1-2.4,5.3-6.4,3.1c-3.8-2.1-6.3-6.1-6.5-10.5
		v-8.9l4.4,2.6v8.9C363.3,285.6,364.1,287,365.3,287.8z"/>
	<path fill="#FFC100" d="M378.8,287.9c-0.5-0.3-0.8-0.3-0.8,0.2c0,1.9,6.9,4.7,6.9,10.3c0,3.4-2.6,3.4-5.6,1.7
		c-2.6-1.6-4.9-3.8-6.7-6.3l1.6-2.9c1.3,2.1,3.1,3.9,5.1,5.3c0.6,0.4,1.1,0.4,1.1-0.2c0-2-6.9-4.7-6.9-10.1c0-3.1,2.3-3.7,5.7-1.7
		c2.2,1.4,4.2,3.1,5.8,5.2l-1.6,3C382.1,290.7,380.5,289.2,378.8,287.9z"/>
</g>
<g id="freepik--speech-bubble--inject-2">
	<path fill="#FFC100" d="M243.7,299.2c11-13.5,8.9-33.3-4.5-44.2c-13.5-11-33.3-8.9-44.2,4.5c-11,13.5-8.9,33.3,4.5,44.2
		c10.3,8.3,24.6,9.4,36,2.6l15.3,6.7L243.7,299.2z"/>
	<path opacity="0.4" enable-background="new    " d="M243.7,299.2c11-13.5,8.9-33.3-4.5-44.2c-13.5-11-33.3-8.9-44.2,4.5
		c-11,13.5-8.9,33.3,4.5,44.2c10.3,8.3,24.6,9.4,36,2.6l15.3,6.7L243.7,299.2z"/>
	<path fill="#FFFFFF" d="M207.7,277.7c0-0.5-0.3-0.7-1-0.7c-1.4,0.2-2.8,0.8-3.9,1.8l-1.7-3.4c1.8-1.4,4-2.2,6.3-2.2
		c2.9,0,5.2,1.5,5.2,3.8c0,1.6-1.2,3.2-2.8,4.8l-2.2,2.2h5.2v3.6h-11.1v-2.9l5-5.1C207.1,279,207.5,278.4,207.7,277.7z"/>
	<path fill="#FFFFFF" d="M221.8,273.4l-3.4,8.1h1.4v-2.7h4.3v2.7h1.6v3.3h-1.6v2.8h-4.3v-2.8h-6.1v-3l3.7-8.4H221.8z"/>
	<path fill="#FFFFFF" d="M238.9,280.5v7.1h-4.6v-5.8c0.1-0.7-0.4-1.4-1.1-1.5c-0.1,0-0.1,0-0.2,0c-0.9,0-1.5,0.7-1.5,1.8v5.5H227
		v-15h4.6v5.5c0.7-1.1,2-1.8,3.4-1.8c2.1-0.1,3.9,1.6,4,3.8C238.9,280.2,238.9,280.4,238.9,280.5z"/>
</g>
<g id="freepik--Character--inject-2">
	<path fill="#FFC100" d="M387.3,394.2v152.1c0,5.4-4.4,9.8-9.8,9.8c-1.7,0-3.4-0.4-4.9-1.3l-81.9-47.3l-14.5-8.4
		c-10.2-5.9-16.4-16.7-16.5-28.5V318.6c0-5.4,4.4-9.8,9.8-9.8c1.7,0,3.4,0.4,4.9,1.3l96.5,55.7C381.1,371.6,387.3,382.5,387.3,394.2
		z"/>
	<path opacity="0.5" fill="#E1FF84" enable-background="new    " d="M387.3,394.2v152.1c0,5.4-4.4,9.8-9.8,9.8
		c-1.7,0-3.4-0.4-4.9-1.3l-81.9-47.3l-14.5-8.4c-10.2-5.9-16.4-16.7-16.5-28.5V318.6c0-5.4,4.4-9.8,9.8-9.8c1.7,0,3.4,0.4,4.9,1.3
		l96.5,55.7C381.1,371.6,387.3,382.5,387.3,394.2z"/>
	<path fill="#263238" d="M340.1,484.2c0,0,15.3,25.4,4.3,54.1l-53.7-30.8L340.1,484.2z"/>
	<circle fill="#263238" cx="347.5" cy="367.8" r="17.2"/>
	<path fill="#263238" d="M347.6,319.6c0,0,5.3-8.6,6.9-7.9s-1.1,8.8-1.1,8.8s8,1.7,6.5,3.7c-1.5,2-11.2,1.5-11.2,1.5L347.6,319.6z"
		/>
	<path fill="#263238" d="M351.3,341.7c-3.7,27.6-26.9,27.6-26.9,27.6l-48.7-21.4c0,0-3.7-3.2-4.8-10.6c-0.4-3-0.4-6.1,0-9.1
		c0,0,0-0.1,0-0.1c1.6-11.6,10.2-24.1,29.1-27.9c4.1-0.8,8.4-1.2,12.6-1.2c2,0,4.1,0.1,6.1,0.3c14.7,1.4,25,8.3,29.9,19
		c1.1,2.4,1.9,4.9,2.4,7.5C352,331,352.1,336.4,351.3,341.7z"/>
	<path fill="#FFC100" d="M234.3,395.1c0,0-17.3-0.6-24,16.3c0,0,7.3,5,17,0S234.3,395.1,234.3,395.1z"/>
	<path opacity="0.5" enable-background="new    " d="M234.3,395.1c0,0-17.3-0.6-24,16.3c0,0,7.3,5,17,0S234.3,395.1,234.3,395.1z"/>
	<path fill="#945959" d="M233.8,403.2c0,0-4.9-21.3-7.5-21.5c-2.6-0.3-3.1,6.5-2.9,10.3l-6.1-13.2c-0.8-1.7-2.8-2.4-4.4-1.6
		c-0.1,0-0.1,0.1-0.2,0.1c-6.1,3.4-16.9,13.6,5.8,38.9L233.8,403.2z"/>
	<path fill="#40FCFF" d="M296.5,388.5l-3.7-0.5c-7.5-1-15,2.1-19.6,8.2l-21.8,29.1l-17.1-30.2c0,0-2.1,20.6-24,16.3l23.5,39.6
		c5.1,8.6,16.2,11.4,24.8,6.3c1.8-1.1,3.5-2.5,4.8-4.1l20.1-24.7L296.5,388.5z"/>
	<path fill="#FFC100" d="M343.1,456.3c-4.9,12.4-5.4,14.8-2.4,21c2.1,4.6,3.7,9.4,4.9,14.2c0,0-22.7,25.4-55,15.9l-14.5-8.4
		c-3-1.7-5.7-4-8.1-6.6l4.4-33c0.2-1.7,0-3.5-0.5-5.2l-4.6-13.6c-4.6-13.6-1-28.6,9.2-38.6l15.6-15.2l41,5.2l6.1,1.8
		c8.3,2.4,13.5,10.5,12.3,19.1C349.5,427.6,346.2,448.5,343.1,456.3z"/>
	<path opacity="0.5" fill="#1B0022" enable-background="new    " d="M343.1,456.3c-4.9,12.4-5.4,14.8-2.4,21
		c2.1,4.6,3.7,9.4,4.9,14.2c0,0-22.7,25.4-55,15.9l-14.5-8.4c-3-1.7-5.7-4-8.1-6.6l4.4-33c0.2-1.7,0-3.5-0.5-5.2l-4.6-13.6
		c-4.6-13.6-1-28.6,9.2-38.6l15.6-15.2l41,5.2l6.1,1.8c8.3,2.4,13.5,10.5,12.3,19.1C349.5,427.6,346.2,448.5,343.1,456.3z"/>
	<path fill="#4AD7FF" d="M318.4,419.3l-8.2-7c-1.8-1.5-4.2-2-6.4-1.2l-9.9,3.4l-1.3-5.6c-0.9-3.5-4.4-5.7-7.9-4.9
		c-0.1,0-0.2,0-0.3,0.1l-4.3,1.2l7.3-13.9c2.4-4.5,6-8.3,10.5-10.7l2.9-1.6l23.6,1.2c0,0,8.8,3.7,8.8,11.9L318.4,419.3"/>
	<polygon fill="#945959" points="324.4,390.8 300.7,409.2 300.7,350.6 324.4,350.6 	"/>
	<polygon fill="#945959" points="301.1,385.9 293.9,414.5 324.3,390.8 	"/>
	<path fill="#703838" d="M300.7,381.7c10.6-3.9,19.1-12.1,23.6-22.5v-8.7h-23.6L300.7,381.7z"/>
	<path fill="#945959" d="M305.8,307.1c-9,0-28,5-30.2,28.4s-0.1,41.6,12,43.4c12.1,1.8,40.2-7,44-37.4
		C335.4,311.2,314.6,307.1,305.8,307.1z"/>
	<polygon fill="#703838" points="291.7,345.5 291.7,359.3 283.6,356.8 	"/>
	<circle fill="#263238" cx="300.7" cy="347.9" r="2.8"/>
	<path fill="#263238" d="M285,345.9c0,1.6-1.3,2.8-2.8,2.8c-1.6,0-2.8-1.3-2.8-2.8c0-1.6,1.3-2.8,2.8-2.8
		C283.8,343.1,285,344.3,285,345.9C285,345.9,285,345.9,285,345.9z"/>
	<path fill="#263238" d="M278.8,340l5.5-3.3c0,0-2.1-2.2-4.2-0.9C278,337.2,278.8,340,278.8,340z"/>
	<path fill="#703838" d="M287.9,364.9c2.7,0.2,5.4-0.5,7.6-2c0,0,0.5,4-2.8,4.8C289.3,368.4,287.9,364.9,287.9,364.9z"/>
	<path fill="#263238" d="M283.1,315.1c0,0,3.4,32.4,47.4,33.4c0,0,13.3-32.2-13-42.6S283.1,315.1,283.1,315.1z"/>
	<path fill="#FFC100" d="M343.5,343.6L343.5,343.6L343.5,343.6L343.5,343.6l-5.4-3.1l0,0c-2.1-1.2-4.9-1.1-8,0.8
		c-6.2,3.6-11.3,12.4-11.3,19.6c0,3.6,1.2,6.1,3.3,7.3l0,0l5.3,3.1l0.3,0.2l0.2,0.1l0,0c2,1,4.7,0.7,7.6-1
		c6.2-3.7,11.3-12.4,11.3-19.6C346.8,347.3,345.5,344.8,343.5,343.6z"/>
	<ellipse transform="matrix(-0.866 -0.5 0.5 -0.866 447.2168 834.749)" fill="#FFC100" cx="335.4" cy="357.5" rx="9.2" ry="16"/>
	
		<ellipse transform="matrix(-0.866 -0.5 0.5 -0.866 447.2168 834.749)" opacity="0.5" enable-background="new    " cx="335.4" cy="357.5" rx="9.2" ry="16"/>
	<path fill="#FFC100" d="M345.6,350.4L345.6,350.4l-3.7-2.1l0,0c-1.4-0.8-3.3-0.7-5.5,0.5c-4.6,3-7.4,8-7.7,13.4
		c0,2.4,0.9,4.2,2.3,5l0,0l3.7,2.1c0.1,0,0.1,0.1,0.2,0.1l0.1,0.1l0,0c1.7,0.7,3.7,0.4,5.2-0.7c4.6-3,7.4-8,7.7-13.4
		C347.9,353,347,351.2,345.6,350.4z"/>
	<path fill="#FFC100" d="M347.9,355.4c-0.3,5.4-3.2,10.4-7.7,13.4c-4.3,2.4-7.7,0.5-7.7-4.5c0.3-5.4,3.2-10.4,7.7-13.4
		C344.4,348.5,347.9,350.5,347.9,355.4z"/>
	<path opacity="0.3" enable-background="new    " d="M347.9,355.4c-0.3,5.4-3.2,10.4-7.7,13.4c-4.3,2.4-7.7,0.5-7.7-4.5
		c0.3-5.4,3.2-10.4,7.7-13.4C344.4,348.5,347.9,350.5,347.9,355.4z"/>
	<path fill="#FFC100" d="M326.7,300.8c-3.5-2.7-7.8-4.2-12.2-4.2h-1.1c-4.5,0-9,0.4-13.4,1.2c0.8,0,1.6,0,2.4,0H300v2.3h2.3
		c16.3,0.6,29.2,13.9,29.2,30.3v9.6c0,1.5,1.2,2.7,2.7,2.7c0.1,0,0.2,0,0.3,0h0.3l2.4-0.8l0,0c-0.2,0.1-0.3,0.1-0.5,0.1
		c1.5-0.2,2.6-1.5,2.6-3V330C339.3,313.9,332.3,305.2,326.7,300.8z"/>
	<path fill="#FFC100" d="M311.3,378.3c-1,0-2-0.2-2.9-0.6l-7.6-3.5c-0.5-0.2-0.7-0.7-0.6-1.2s0.7-0.7,1.2-0.6c0,0,0.1,0,0.1,0.1
		l7.6,3.5c2,0.9,4.4,0.5,5.9-1.1l7.3-7.6c0.4-0.4,0.9-0.4,1.3,0c0.4,0.4,0.4,0.9,0,1.3l-7.3,7.6C315,377.5,313.2,378.3,311.3,378.3z
		"/>
	<path opacity="0.5" enable-background="new    " d="M311.3,378.3c-1,0-2-0.2-2.9-0.6l-7.6-3.5c-0.5-0.2-0.7-0.7-0.6-1.2
		s0.7-0.7,1.2-0.6c0,0,0.1,0,0.1,0.1l7.6,3.5c2,0.9,4.4,0.5,5.9-1.1l7.3-7.6c0.4-0.4,0.9-0.4,1.3,0c0.4,0.4,0.4,0.9,0,1.3l-7.3,7.6
		C315,377.5,313.2,378.3,311.3,378.3z"/>
	<path fill="#FFC100" d="M302.7,371.5c0,2-1.6,3.6-3.6,3.6s-3.6-1.6-3.6-3.6s1.6-3.6,3.6-3.6l0,0
		C301.1,367.9,302.7,369.5,302.7,371.5z"/>
	<path opacity="0.5" enable-background="new    " d="M302.7,371.5c0,2-1.6,3.6-3.6,3.6s-3.6-1.6-3.6-3.6s1.6-3.6,3.6-3.6l0,0
		C301.1,367.9,302.7,369.5,302.7,371.5z"/>
	<path fill="#FFC100" d="M339.3,330v8.9c0,1.5-1.1,2.8-2.6,3c-1.6,0.2-3-1-3.2-2.6c0-0.1,0-0.2,0-0.3V330
		c0-17.8-14.4-32.2-32.1-32.2c-0.5,0-0.9,0-1.4,0c4.4-0.9,8.9-1.3,13.4-1.2h1.1c4.4,0,8.7,1.5,12.2,4.2
		C332.3,305.2,339.3,313.9,339.3,330z"/>
	<path opacity="0.5" fill="#001356" enable-background="new    " d="M339.3,330v8.9c0,1.5-1.1,2.8-2.6,3c-1.6,0.2-3-1-3.2-2.6
		c0-0.1,0-0.2,0-0.3V330c0-17.8-14.4-32.2-32.1-32.2c-0.5,0-0.9,0-1.4,0c4.4-0.9,8.9-1.3,13.4-1.2h1.1c4.4,0,8.7,1.5,12.2,4.2
		C332.3,305.2,339.3,313.9,339.3,330z"/>
	<path fill="#FFC100" d="M325.5,498.4c0,0-5.9,16.3,15.3,23.7c0,0,6.9-10.2,0-18.5C333.8,495.3,325.5,498.4,325.5,498.4z"/>
	<path opacity="0.7" enable-background="new    " d="M325.5,498.4c0,0-5.9,16.3,15.3,23.7c0,0,6.9-10.2,0-18.5
		C333.8,495.3,325.5,498.4,325.5,498.4z"/>
	<path fill="#945959" d="M332.9,499.2c0,0-20.7,7.6-20.6,10.5c0.1,2.9,8.8,0.9,8.8,0.9l-3.2,2.1c-3.3,2.2-5.9,5.3-7.4,9l0,0
		c-0.7,1.7,0,3.6,1.6,4.5l7.9,4.2c1.8,1,4.1,0.3,5.1-1.6c0,0,0-0.1,0-0.1l0,0c0.9-1.7,2.4-3.1,4.3-3.7c4.3-1.4,12.2-5.5,15.4-16.7
		L332.9,499.2z"/>
	<path fill="#0FF4FF" d="M339.1,394.1c0,0-11,6.1-5.2,24.7c5.9,18.6,16.8,47.4,16.8,47.4l-25.3,32.3c5.5,0.7,10.4,3.6,13.5,8.1
		c3,4.6,3.7,10.4,1.7,15.5l31.4-40.4c5.9-7.6,7.6-17.6,4.5-26.7l-13.5-39.3c-3.3-9.7-11-17.3-20.8-20.6L339.1,394.1z"/>
</g>
<g id="freepik--Icons--inject-2">
	<path fill="#003EFF" d="M153.2,284.3l-48.7-28.2c-1.1-0.8-2.6-0.9-3.9-0.4l0,0c-0.1,0.1-0.3,0.1-0.4,0.2l-10.6,6.2h0.1
		c-1.3,0.8-2.2,2.5-2.2,5v54.1c0,4.6,2.8,9.9,6.2,11.9l48.7,28.2c1.3,0.9,2.9,1,4.3,0.2c0,0-0.1,0-0.1,0.1l10.5-6.1l0,0
		c1.4-0.7,2.2-2.5,2.2-5.1v-54.2C159.4,291.6,156.7,286.3,153.2,284.3z"/>
	<path fill="#003EFF" d="M157.7,289.4c-1-2.1-2.5-3.9-4.5-5.1l-48.7-28.2c-1.1-0.8-2.6-0.9-3.9-0.4l0,0c-0.1,0.1-0.3,0.1-0.4,0.2
		l-10.6,6.2c1.3-0.7,2.9-0.6,4.1,0.3l48.7,28.2c2,1.3,3.6,3.2,4.6,5.4l0,0L157.7,289.4z"/>
	<path fill="#003EFF" d="M148.7,356.6c0,2.4-0.8,4.1-2,4.9l10.5-6.1l0,0c1.4-0.7,2.2-2.5,2.2-5.1v-54.1c-0.1-2.4-0.6-4.7-1.7-6.8
		L147,296l0,0c1,2,1.6,4.3,1.6,6.5V356.6z"/>
	<path opacity="0.3" fill="#FFFFFF" enable-background="new    " d="M157.7,289.4c-1-2.1-2.5-3.9-4.5-5.1l-48.7-28.2
		c-1.1-0.8-2.6-0.9-3.9-0.4l0,0c-0.1,0.1-0.3,0.1-0.4,0.2l-10.6,6.2c1.3-0.7,2.9-0.6,4.1,0.3l48.7,28.2c2,1.3,3.6,3.2,4.6,5.4l0,0
		L157.7,289.4z"/>
	<path opacity="0.6" fill="#FFFFFF" enable-background="new    " d="M148.7,356.6c0,2.4-0.8,4.1-2,4.9l10.5-6.1l0,0
		c1.4-0.7,2.2-2.5,2.2-5.1v-54.1c-0.1-2.4-0.6-4.7-1.7-6.8L147,296l0,0c1,2,1.6,4.3,1.6,6.5V356.6z"/>
	<path fill="#003EFF" d="M134.4,318c0,7-2.8,9.4-6.9,7c-2.3-1.3-4-3.5-4.7-6.1c-1.2,1.5-3.1,1.6-5.8,0.1c-4.4-2.5-7.8-8.6-7.8-14.4
		s3.4-7.9,7.8-5.3c2.2,1.3,4.1,3.3,5.2,5.6v-2.3l4.6,2.7v12.7c-0.1,1.4,0.5,2.7,1.6,3.4c1.6,0.9,2.5-0.6,2.5-5.2
		c0-7.9-5.1-16.4-12.6-20.7c-7.5-4.3-12.6-1.3-12.6,6.9c0.2,8.8,4.9,16.9,12.5,21.5c2,1.2,4.3,2,6.7,2.1l1.1,4.2
		c-2.8-0.2-5.4-1.1-7.8-2.6c-9.8-5.7-16.3-17.1-16.3-27.4s6.5-14.1,16.4-8.4C127.9,297.2,134.4,308.2,134.4,318z M122.3,312.1
		c0-3.2-1.6-6.1-4.2-7.8c-2.4-1.4-4.2-0.4-4.2,2.9c-0.1,3.2,1.5,6.1,4.2,7.8C120.5,316.4,122.3,315.5,122.3,312.1z"/>
	<g opacity="0.9">
		<path fill="#E4F1FF" d="M134.4,318c0,7-2.8,9.4-6.9,7c-2.3-1.3-4-3.5-4.7-6.1c-1.2,1.5-3.1,1.6-5.8,0.1c-4.4-2.5-7.8-8.6-7.8-14.4
			s3.4-7.9,7.8-5.3c2.2,1.3,4.1,3.3,5.2,5.6v-2.3l4.6,2.7v12.7c-0.1,1.4,0.5,2.7,1.6,3.4c1.6,0.9,2.5-0.6,2.5-5.2
			c0-7.9-5.1-16.4-12.6-20.7c-7.5-4.3-12.6-1.3-12.6,6.9c0.2,8.8,4.9,16.9,12.5,21.5c2,1.2,4.3,2,6.7,2.1l1.1,4.2
			c-2.8-0.2-5.4-1.1-7.8-2.6c-9.8-5.7-16.3-17.1-16.3-27.4s6.5-14.1,16.4-8.4C127.9,297.2,134.4,308.2,134.4,318z M122.3,312.1
			c0-3.2-1.6-6.1-4.2-7.8c-2.4-1.4-4.2-0.4-4.2,2.9c-0.1,3.2,1.5,6.1,4.2,7.8C120.5,316.4,122.3,315.5,122.3,312.1z"/>
	</g>
	<path fill="#003EFF" d="M153.2,380.7l-48.7-28.2c-1.1-0.8-2.6-1-3.9-0.4l0,0c-0.1,0.1-0.3,0.1-0.4,0.2l-10.6,6.2h0.1
		c-1.3,0.8-2.2,2.5-2.2,5v54.1c0,4.6,2.8,9.9,6.2,11.9l48.7,28.2c1.3,0.9,2.9,1,4.3,0.2l-0.1,0.1l10.5-6.2l0,0
		c1.4-0.7,2.2-2.4,2.2-5.1v-54.2C159.4,388,156.7,382.7,153.2,380.7z"/>
	<path fill="#003EFF" d="M157.7,385.9c-1-2.1-2.5-3.9-4.5-5.1l-48.7-28.2c-1.1-0.8-2.6-1-3.9-0.4l0,0c-0.1,0.1-0.3,0.1-0.4,0.2
		l-10.6,6.2c1.3-0.7,2.9-0.6,4.1,0.3l48.7,28.2c2,1.3,3.6,3.2,4.6,5.4l0,0L157.7,385.9z"/>
	<path fill="#003EFF" d="M148.7,453c0,2.4-0.8,4.1-2,5l10.5-6.2l0,0c1.4-0.7,2.2-2.4,2.2-5.1v-54.1c-0.1-2.4-0.6-4.7-1.7-6.7
		l-10.6,6.5l0,0c1,2,1.6,4.2,1.6,6.5V453z"/>
	<path opacity="0.3" fill="#FFFFFF" enable-background="new    " d="M157.7,385.9c-1-2.1-2.5-3.9-4.5-5.1l-48.7-28.2
		c-1.1-0.8-2.6-1-3.9-0.4l0,0c-0.1,0.1-0.3,0.1-0.4,0.2l-10.6,6.2c1.3-0.7,2.9-0.6,4.1,0.3l48.7,28.2c2,1.3,3.6,3.2,4.6,5.4l0,0
		L157.7,385.9z"/>
	<path opacity="0.6" fill="#FFFFFF" enable-background="new    " d="M148.7,453c0,2.4-0.8,4.1-2,5l10.5-6.2l0,0
		c1.4-0.7,2.2-2.4,2.2-5.1v-54.1c-0.1-2.4-0.6-4.7-1.7-6.7l-10.6,6.5l0,0c1,2,1.6,4.2,1.6,6.5V453z"/>
	<polygon fill="#003EFF" points="112.7,404.9 100.9,385.9 100.9,411.7 	"/>
	<polygon fill="#003EFF" points="123.6,410.4 135.3,430.7 135.3,404.9 	"/>
	<path fill="#003EFF" d="M102.7,385l12.1,19.6c0.1,0,0.1,0.1,0.1,0.1c0,0,0,0.1,0,0.1l3.6,5.8l3-1.4c0-0.1,0.1-0.1,0.2-0.1
		c0.1-0.1,0.3-0.1,0.4-0.1l12.2-5.7L102.7,385z"/>
	<path fill="#003EFF" d="M121.8,411.3l-3.3,1.5c-0.1,0.1-0.3,0.1-0.4,0.1c-0.3,0-0.7-0.2-0.8-0.5l-3.6-5.8l-11.8,6.8l31.7,18.3
		L121.8,411.3z"/>
	<g opacity="0.9">
		<polygon fill="#E1F2FF" points="112.7,404.9 100.9,385.9 100.9,411.7 		"/>
		<polygon fill="#E1F2FF" points="123.6,410.4 135.3,430.7 135.3,404.9 		"/>
		<path fill="#E1F2FF" d="M102.7,385l12.1,19.6c0.1,0,0.1,0.1,0.1,0.1c0,0,0,0.1,0,0.1l3.6,5.8l3-1.4c0-0.1,0.1-0.1,0.2-0.1
			c0.1-0.1,0.3-0.1,0.4-0.1l12.2-5.7L102.7,385z"/>
		<path fill="#E1F2FF" d="M121.8,411.3l-3.3,1.5c-0.1,0.1-0.3,0.1-0.4,0.1c-0.3,0-0.7-0.2-0.8-0.5l-3.6-5.8l-11.8,6.8l31.7,18.3
			L121.8,411.3z"/>
	</g>
	<path fill="#003EFF" d="M153.2,187.9l-48.7-28.2c-1.1-0.8-2.6-1-3.9-0.4l0,0c-0.1,0.1-0.3,0.1-0.4,0.2l-10.6,6.2h0.1
		c-1.3,0.7-2.2,2.5-2.2,5v54.1c0,4.6,2.8,9.9,6.2,11.9l48.7,28.2c1.3,0.9,2.9,1,4.3,0.2l-0.1,0.1l10.5-6.1l0,0
		c1.4-0.7,2.2-2.4,2.2-5.1v-54.3C159.4,195.2,156.7,189.9,153.2,187.9z"/>
	<path fill="#003EFF" d="M157.7,193c-1-2.1-2.5-3.9-4.5-5.1l-48.7-28.1c-1.1-0.8-2.6-1-3.9-0.4l0,0c-0.1,0.1-0.3,0.1-0.4,0.2
		l-10.6,6.2c1.3-0.7,2.9-0.6,4.1,0.3l48.7,28.2c2,1.3,3.6,3.2,4.6,5.4l0,0L157.7,193z"/>
	<path fill="#003EFF" d="M148.7,260.1c0,2.4-0.8,4.1-2,4.9l10.5-6.1l0,0c1.4-0.7,2.2-2.4,2.2-5.1v-54.1c-0.1-2.4-0.6-4.7-1.7-6.7
		l-10.6,6.5l0,0c1,2,1.6,4.2,1.6,6.5V260.1z"/>
	<path opacity="0.3" fill="#FFFFFF" enable-background="new    " d="M157.7,193c-1-2.1-2.5-3.9-4.5-5.1l-48.7-28.1
		c-1.1-0.8-2.6-1-3.9-0.4l0,0c-0.1,0.1-0.3,0.1-0.4,0.2l-10.6,6.2c1.3-0.7,2.9-0.6,4.1,0.3l48.7,28.2c2,1.3,3.6,3.2,4.6,5.4l0,0
		L157.7,193z"/>
	<path opacity="0.6" fill="#FFFFFF" enable-background="new    " d="M148.7,260.1c0,2.4-0.8,4.1-2,4.9l10.5-6.1l0,0
		c1.4-0.7,2.2-2.4,2.2-5.1v-54.1c-0.1-2.4-0.6-4.7-1.7-6.7l-10.6,6.5l0,0c1,2,1.6,4.2,1.6,6.5V260.1z"/>
	<path fill="#003EFF" d="M132.7,236.9c-1.9-3.1-3.8-6.1-5.6-9.2c-0.6-1.2-1.7-2.1-2.9-2.4c-0.9-0.2-1.8-0.4-2.7-0.7
		c-0.3-0.1-0.6-0.4-0.8-0.7c-3.1-5.2-5.5-10.8-7.3-16.6c-0.1-0.3,0-0.5,0.1-0.7c0.6-0.6,1.2-1.1,1.8-1.6c0.6-0.5,0.9-1.7,0.5-3.2
		c-0.9-3.3-1.8-6.5-2.7-9.8c-0.4-1.9-1.7-3.4-3.5-4.1c-2-0.5-4.1-0.5-6,0.2c-0.7,0.3-1.1,1-1.2,2.1c0.3,2.2,0.5,4.5,1,6.7
		c3,16.4,10.3,31.5,21.8,45.3c0.6,0.9,1.6,1.5,2.7,1.6c1.9,0,3.7-0.8,5.2-2C134.2,240.7,134,239,132.7,236.9z"/>
	<path fill="#003EFF" d="M132.6,220.2c-0.3-3.5-1.2-7-2.9-10.1c-1.2-2.4-2.8-4.7-4.6-6.7c-0.5-0.5-0.9-0.7-1.1-0.3
		c-0.2,0.4,0,1,0.5,1.5l0.5,0.6c3.4,3.9,5.5,8.7,6.1,13.9c0,0.4,0,0.7,0.1,1.1c0.2,0.4,0.4,0.8,0.7,1.1c0.3,0.2,0.6,0,0.8,0
		C132.6,220.7,132.6,220.5,132.6,220.2z"/>
	<path fill="#003EFF" d="M121.5,210.1c1.5,1.7,2.5,3.8,2.7,6.1c0.1,0.3,0.2,0.7,0.4,1c0.7,0.6,1.1,0.4,1.1-0.4
		c-0.3-2.9-1.5-5.7-3.4-7.8c-0.5-0.5-0.8-0.6-1.1-0.2C121,209.3,121.1,209.8,121.5,210.1z"/>
	<g opacity="0.9">
		<path fill="#E3F4FF" d="M132.7,236.9c-1.9-3.1-3.8-6.1-5.6-9.2c-0.6-1.2-1.7-2.1-2.9-2.4c-0.9-0.2-1.8-0.4-2.7-0.7
			c-0.3-0.1-0.6-0.4-0.8-0.7c-3.1-5.2-5.5-10.8-7.3-16.6c-0.1-0.3,0-0.5,0.1-0.7c0.6-0.6,1.2-1.1,1.8-1.6c0.6-0.5,0.9-1.7,0.5-3.2
			c-0.9-3.3-1.8-6.5-2.7-9.8c-0.4-1.9-1.7-3.4-3.5-4.1c-2-0.5-4.1-0.5-6,0.2c-0.7,0.3-1.1,1-1.2,2.1c0.3,2.2,0.5,4.5,1,6.7
			c3,16.4,10.3,31.5,21.8,45.3c0.6,0.9,1.6,1.5,2.7,1.6c1.9,0,3.7-0.8,5.2-2C134.2,240.7,134,239,132.7,236.9z"/>
		<path fill="#E3F4FF" d="M132.6,220.2c-0.3-3.5-1.2-7-2.9-10.1c-1.2-2.4-2.8-4.7-4.6-6.7c-0.5-0.5-0.9-0.7-1.1-0.3
			c-0.2,0.4,0,1,0.5,1.5l0.5,0.6c3.4,3.9,5.5,8.7,6.1,13.9c0,0.4,0,0.7,0.1,1.1c0.2,0.4,0.4,0.8,0.7,1.1c0.3,0.2,0.6,0,0.8,0
			C132.6,220.7,132.6,220.5,132.6,220.2z"/>
		<path fill="#E3F4FF" d="M121.5,210.1c1.5,1.7,2.5,3.8,2.7,6.1c0.1,0.3,0.2,0.7,0.4,1c0.7,0.6,1.1,0.4,1.1-0.4
			c-0.3-2.9-1.5-5.7-3.4-7.8c-0.5-0.5-0.8-0.6-1.1-0.2C121,209.3,121.1,209.8,121.5,210.1z"/>
	</g>
</g>
</svg>
