<svg width="32" height="33" viewBox="0 0 32 33" fill="none" xmlns="http://www.w3.org/2000/svg">
<path d="M27.9999 17.8424C27.7901 20.112 26.9383 22.2749 25.5442 24.0781C24.15 25.8813 22.2712 27.2501 20.1275 28.0245C17.9838 28.7988 15.6638 28.9466 13.4392 28.4505C11.2146 27.9545 9.17719 26.8351 7.5655 25.2234C5.95381 23.6117 4.83445 21.5744 4.33841 19.3497C3.84237 17.1251 3.99016 14.8052 4.76448 12.6615C5.53881 10.5177 6.90764 8.63888 8.71082 7.24473C10.514 5.85058 12.6769 4.9988 14.9465 4.78906C13.6178 6.58675 12.9783 8.80166 13.1446 11.0309C13.3108 13.2602 14.2717 15.3558 15.8524 16.9365C17.4331 18.5172 19.5287 19.4781 21.758 19.6444C23.9873 19.8106 26.2022 19.1712 27.9999 17.8424V17.8424Z" stroke="#08090C" stroke-width="2" stroke-linecap="round" stroke-linejoin="round"/>
</svg>
