<svg width="263" height="648" viewBox="0 0 263 648" fill="none" xmlns="http://www.w3.org/2000/svg">
<g opacity="0.05">
<path d="M40.1779 122.504C61.6086 122.504 76.0031 103.92 76.0031 77.709C76.0031 51.4443 61.6086 32.8604 40.1779 32.8604C18.6936 32.8604 4.24532 51.4443 4.24532 77.709C4.24532 103.92 18.6936 122.504 40.1779 122.504ZM40.0705 104.94C28.7912 104.94 21.5939 93.6611 21.5939 77.709C21.5939 61.7031 28.7912 50.3701 40.0705 50.3701C51.3498 50.3701 58.5471 61.7031 58.5471 77.709C58.5471 93.6611 51.3498 104.94 40.0705 104.94ZM109.216 60.6289C104.597 60.6289 100.998 61.4346 97.9902 63.583L99.8701 51.6592H131.56V34.3643H86.9258L80.373 79.374L90.041 84.3691C93.9619 79.75 100.676 77.4404 106.691 77.4404C115.661 77.4404 121.086 82.4355 121.086 90.5459C121.086 100.805 112.814 104.672 106.691 104.672C101.804 104.672 97.3994 102.255 94.7676 98.2266L77.4727 103.759C82.4678 114.931 94.2842 122.021 107.443 122.021C125.007 122.021 139.187 109.56 139.187 90.5459C139.187 73.5195 127.692 60.6289 109.216 60.6289Z" fill="#2A2552"/>
<circle opacity="0.5" cx="173.277" cy="113.118" r="13.8991" fill="#2A2552"/>
<circle opacity="0.5" cx="173.277" cy="47.8991" r="13.8991" fill="#2A2552"/>
<circle opacity="0.25" cx="248.966" cy="113.118" r="13.8991" fill="#2A2552"/>
<circle opacity="0.25" cx="248.966" cy="47.8991" r="13.8991" fill="#2A2552"/>
<circle cx="21.8991" cy="243.118" r="13.8991" fill="#2A2552"/>
<circle cx="21.8991" cy="177.899" r="13.8991" fill="#2A2552"/>
<circle opacity="0.75" cx="97.5883" cy="243.118" r="13.8991" fill="#2A2552"/>
<circle opacity="0.75" cx="97.5883" cy="177.899" r="13.8991" fill="#2A2552"/>
<circle opacity="0.5" cx="173.277" cy="243.118" r="13.8991" fill="#2A2552"/>
<circle opacity="0.5" cx="173.277" cy="177.899" r="13.8991" fill="#2A2552"/>
<circle opacity="0.25" cx="248.966" cy="243.118" r="13.8991" fill="#2A2552"/>
<circle opacity="0.25" cx="248.966" cy="177.899" r="13.8991" fill="#2A2552"/>
<circle cx="21.8991" cy="373.118" r="13.8991" fill="#2A2552"/>
<circle cx="21.8991" cy="307.899" r="13.8991" fill="#2A2552"/>
<circle cx="21.8991" cy="503.118" r="13.8991" fill="#2A2552"/>
<circle cx="21.8991" cy="437.899" r="13.8991" fill="#2A2552"/>
<circle cx="21.8991" cy="633.118" r="13.8991" fill="#2A2552"/>
<circle cx="21.8991" cy="567.899" r="13.8991" fill="#2A2552"/>
<circle opacity="0.75" cx="97.5883" cy="633.118" r="13.8991" fill="#2A2552"/>
<circle opacity="0.75" cx="97.5883" cy="567.899" r="13.8991" fill="#2A2552"/>
<circle opacity="0.5" cx="173.277" cy="633.118" r="13.8991" fill="#2A2552"/>
<circle opacity="0.5" cx="173.277" cy="567.899" r="13.8991" fill="#2A2552"/>
<circle opacity="0.25" cx="248.966" cy="633.118" r="13.8991" fill="#2A2552"/>
<circle opacity="0.25" cx="248.966" cy="567.899" r="13.8991" fill="#2A2552"/>
</g>
</svg>
