<svg width="264" height="642" viewBox="0 0 264 642" fill="none" xmlns="http://www.w3.org/2000/svg">
<g opacity="0.05">
<path d="M40.3439 122.504C61.7746 122.504 76.1691 103.92 76.1691 77.709C76.1691 51.4443 61.7746 32.8604 40.3439 32.8604C18.8596 32.8604 4.41133 51.4443 4.41133 77.709C4.41133 103.92 18.8596 122.504 40.3439 122.504ZM40.2365 104.94C28.9572 104.94 21.76 93.6611 21.76 77.709C21.76 61.7031 28.9572 50.3701 40.2365 50.3701C51.5158 50.3701 58.7131 61.7031 58.7131 77.709C58.7131 93.6611 51.5158 104.94 40.2365 104.94ZM145.69 85.0674H136.989V61.0586H119.641V85.0674H100.896L122.917 34.1494L104.602 34.042L75.0068 102.416H119.641V121H136.989V102.416H145.69V85.0674Z" fill="#2A2552"/>
<circle opacity="0.5" cx="174.277" cy="107.118" r="13.8991" fill="#2A2552"/>
<circle opacity="0.5" cx="174.277" cy="41.8991" r="13.8991" fill="#2A2552"/>
<circle opacity="0.25" cx="249.966" cy="107.118" r="13.8991" fill="#2A2552"/>
<circle opacity="0.25" cx="249.966" cy="41.8991" r="13.8991" fill="#2A2552"/>
<circle cx="22.8991" cy="237.118" r="13.8991" fill="#2A2552"/>
<circle cx="22.8991" cy="171.899" r="13.8991" fill="#2A2552"/>
<circle opacity="0.75" cx="98.5883" cy="237.118" r="13.8991" fill="#2A2552"/>
<circle opacity="0.75" cx="98.5883" cy="171.899" r="13.8991" fill="#2A2552"/>
<circle opacity="0.5" cx="174.277" cy="237.118" r="13.8991" fill="#2A2552"/>
<circle opacity="0.5" cx="174.277" cy="171.899" r="13.8991" fill="#2A2552"/>
<circle opacity="0.25" cx="249.966" cy="237.118" r="13.8991" fill="#2A2552"/>
<circle opacity="0.25" cx="249.966" cy="171.899" r="13.8991" fill="#2A2552"/>
<circle cx="22.8991" cy="367.118" r="13.8991" fill="#2A2552"/>
<circle cx="22.8991" cy="301.899" r="13.8991" fill="#2A2552"/>
<circle cx="22.8991" cy="497.118" r="13.8991" fill="#2A2552"/>
<circle cx="22.8991" cy="431.899" r="13.8991" fill="#2A2552"/>
<circle cx="22.8991" cy="627.118" r="13.8991" fill="#2A2552"/>
<circle cx="22.8991" cy="561.899" r="13.8991" fill="#2A2552"/>
<circle opacity="0.75" cx="98.5883" cy="627.118" r="13.8991" fill="#2A2552"/>
<circle opacity="0.75" cx="98.5883" cy="561.899" r="13.8991" fill="#2A2552"/>
<circle opacity="0.5" cx="174.277" cy="627.118" r="13.8991" fill="#2A2552"/>
<circle opacity="0.5" cx="174.277" cy="561.899" r="13.8991" fill="#2A2552"/>
<circle opacity="0.25" cx="249.966" cy="627.118" r="13.8991" fill="#2A2552"/>
<circle opacity="0.25" cx="249.966" cy="561.899" r="13.8991" fill="#2A2552"/>
</g>
</svg>
