<svg width="267" height="648" viewBox="0 0 267 648" fill="none" xmlns="http://www.w3.org/2000/svg">
<g opacity="0.05">
<path d="M40.2357 122.504C61.6664 122.504 76.0609 103.92 76.0609 77.709C76.0609 51.4443 61.6664 32.8604 40.2357 32.8604C18.7514 32.8604 4.30313 51.4443 4.30313 77.709C4.30313 103.92 18.7514 122.504 40.2357 122.504ZM40.1283 104.94C28.849 104.94 21.6518 93.6611 21.6518 77.709C21.6518 61.7031 28.849 50.3701 40.1283 50.3701C51.4076 50.3701 58.6049 61.7031 58.6049 77.709C58.6049 93.6611 51.4076 104.94 40.1283 104.94ZM127.329 72.2305C133.022 69.4375 136.782 62.9385 136.782 55.2578C136.782 41.4541 125.073 31.6787 111.646 31.6787C98.7012 31.6787 88.9258 40.7559 86.4551 51.1221L104.287 54.8281C105.093 51.0684 107.939 48.7588 111.538 48.7588C115.835 48.7588 119.326 52.0352 119.326 56.6543C119.326 63.0459 112.559 67.7188 103.75 67.7188L101.118 77.6016C113.472 77.6016 123.677 83.9932 123.677 93.2852C123.677 99.623 118.95 104.887 111.753 104.887C105.845 104.887 100.85 101.396 99.5606 96.293L82.4805 100.644C85.3809 112.353 98.0029 122.074 112.129 122.074C128.511 122.074 141.24 109.828 141.24 94.5742C141.24 83.4561 134.688 75.668 127.329 72.2305Z" fill="#2A2552"/>
<circle opacity="0.5" cx="177.277" cy="113.118" r="13.8991" fill="#2A2552"/>
<circle opacity="0.5" cx="177.277" cy="47.8991" r="13.8991" fill="#2A2552"/>
<circle opacity="0.25" cx="252.966" cy="113.118" r="13.8991" fill="#2A2552"/>
<circle opacity="0.25" cx="252.966" cy="47.8991" r="13.8991" fill="#2A2552"/>
<circle cx="25.8991" cy="243.118" r="13.8991" fill="#2A2552"/>
<circle cx="25.8991" cy="177.899" r="13.8991" fill="#2A2552"/>
<circle opacity="0.75" cx="101.588" cy="243.118" r="13.8991" fill="#2A2552"/>
<circle opacity="0.75" cx="101.588" cy="177.899" r="13.8991" fill="#2A2552"/>
<circle opacity="0.5" cx="177.277" cy="243.118" r="13.8991" fill="#2A2552"/>
<circle opacity="0.5" cx="177.277" cy="177.899" r="13.8991" fill="#2A2552"/>
<circle opacity="0.25" cx="252.966" cy="243.118" r="13.8991" fill="#2A2552"/>
<circle opacity="0.25" cx="252.966" cy="177.899" r="13.8991" fill="#2A2552"/>
<circle cx="25.8991" cy="373.118" r="13.8991" fill="#2A2552"/>
<circle cx="25.8991" cy="307.899" r="13.8991" fill="#2A2552"/>
<circle cx="25.8991" cy="503.118" r="13.8991" fill="#2A2552"/>
<circle cx="25.8991" cy="437.899" r="13.8991" fill="#2A2552"/>
<circle cx="25.8991" cy="633.118" r="13.8991" fill="#2A2552"/>
<circle cx="25.8991" cy="567.899" r="13.8991" fill="#2A2552"/>
<circle opacity="0.75" cx="101.588" cy="633.118" r="13.8991" fill="#2A2552"/>
<circle opacity="0.75" cx="101.588" cy="567.899" r="13.8991" fill="#2A2552"/>
<circle opacity="0.5" cx="177.277" cy="633.118" r="13.8991" fill="#2A2552"/>
<circle opacity="0.5" cx="177.277" cy="567.899" r="13.8991" fill="#2A2552"/>
<circle opacity="0.25" cx="252.966" cy="633.118" r="13.8991" fill="#2A2552"/>
<circle opacity="0.25" cx="252.966" cy="567.899" r="13.8991" fill="#2A2552"/>
</g>
</svg>
