<svg width="266" height="648" viewBox="0 0 266 648" fill="none" xmlns="http://www.w3.org/2000/svg">
<g opacity="0.05">
<path d="M40.6006 122.504C62.0312 122.504 76.4258 103.92 76.4258 77.709C76.4258 51.4443 62.0312 32.8604 40.6006 32.8604C19.1162 32.8604 4.66797 51.4443 4.66797 77.709C4.66797 103.92 19.1162 122.504 40.6006 122.504ZM40.4932 104.94C29.2139 104.94 22.0166 93.6611 22.0166 77.709C22.0166 61.7031 29.2139 50.3701 40.4932 50.3701C51.7725 50.3701 58.9697 61.7031 58.9697 77.709C58.9697 93.6611 51.7725 104.94 40.4932 104.94ZM114.324 33.3438L92.1953 40.3799V58.5342L102.024 55.6875V121H119.427V33.3438H114.324Z" fill="#2A2552"/>
<circle opacity="0.5" cx="176.277" cy="113.118" r="13.8991" fill="#2A2552"/>
<circle opacity="0.5" cx="176.277" cy="47.8991" r="13.8991" fill="#2A2552"/>
<circle opacity="0.25" cx="251.966" cy="113.118" r="13.8991" fill="#2A2552"/>
<circle opacity="0.25" cx="251.966" cy="47.8991" r="13.8991" fill="#2A2552"/>
<circle cx="24.8991" cy="243.118" r="13.8991" fill="#2A2552"/>
<circle cx="24.8991" cy="177.899" r="13.8991" fill="#2A2552"/>
<circle opacity="0.75" cx="100.588" cy="243.118" r="13.8991" fill="#2A2552"/>
<circle opacity="0.75" cx="100.588" cy="177.899" r="13.8991" fill="#2A2552"/>
<circle opacity="0.5" cx="176.277" cy="243.118" r="13.8991" fill="#2A2552"/>
<circle opacity="0.5" cx="176.277" cy="177.899" r="13.8991" fill="#2A2552"/>
<circle opacity="0.25" cx="251.966" cy="243.118" r="13.8991" fill="#2A2552"/>
<circle opacity="0.25" cx="251.966" cy="177.899" r="13.8991" fill="#2A2552"/>
<circle cx="24.8991" cy="373.118" r="13.8991" fill="#2A2552"/>
<circle cx="24.8991" cy="307.899" r="13.8991" fill="#2A2552"/>
<circle cx="24.8991" cy="503.118" r="13.8991" fill="#2A2552"/>
<circle cx="24.8991" cy="437.899" r="13.8991" fill="#2A2552"/>
<circle cx="24.8991" cy="633.118" r="13.8991" fill="#2A2552"/>
<circle cx="24.8991" cy="567.899" r="13.8991" fill="#2A2552"/>
<circle opacity="0.75" cx="100.588" cy="633.118" r="13.8991" fill="#2A2552"/>
<circle opacity="0.75" cx="100.588" cy="567.899" r="13.8991" fill="#2A2552"/>
<circle opacity="0.5" cx="176.277" cy="633.118" r="13.8991" fill="#2A2552"/>
<circle opacity="0.5" cx="176.277" cy="567.899" r="13.8991" fill="#2A2552"/>
<circle opacity="0.25" cx="251.966" cy="633.118" r="13.8991" fill="#2A2552"/>
<circle opacity="0.25" cx="251.966" cy="567.899" r="13.8991" fill="#2A2552"/>
</g>
</svg>
