<svg width="255" height="338" viewBox="0 0 255 338" fill="none" xmlns="http://www.w3.org/2000/svg">
<g clip-path="url(#clip0)">
<g opacity="0.05">
<circle cx="14.8991" cy="130.337" r="13.8991" fill="#2A2552"/>
<circle cx="14.8991" cy="195.556" r="13.8991" fill="#2A2552"/>
<circle cx="14.8991" cy="260.776" r="13.8991" fill="#2A2552"/>
<circle cx="14.8991" cy="-0.100851" r="13.8991" fill="#2A2552"/>
<circle cx="90.5883" cy="130.337" r="13.8991" fill="#2A2552"/>
<circle cx="90.5883" cy="65.1183" r="13.8991" fill="#2A2552"/>
<circle cx="90.5883" cy="195.74" r="13.8991" fill="#2A2552"/>
<circle cx="90.5883" cy="260.776" r="13.8991" fill="#2A2552"/>
<circle cx="90.5883" cy="-0.100851" r="13.8991" fill="#2A2552"/>
<circle cx="166.277" cy="130.337" r="13.8991" fill="#2A2552"/>
<circle cx="166.277" cy="65.1183" r="13.8991" fill="#2A2552"/>
<circle cx="166.277" cy="195.556" r="13.8991" fill="#2A2552"/>
<circle cx="166.277" cy="260.776" r="13.8991" fill="#2A2552"/>
<circle cx="166.277" cy="-0.100851" r="13.8991" fill="#2A2552"/>
<circle cx="241.966" cy="130.337" r="13.8991" fill="#2A2552"/>
<circle cx="241.966" cy="65.1183" r="13.8991" fill="#2A2552"/>
<circle cx="241.966" cy="195.556" r="13.8991" fill="#2A2552"/>
<circle cx="241.966" cy="260.776" r="13.8991" fill="#2A2552"/>
<circle cx="241.966" cy="323.74" r="13.8991" fill="#2A2552"/>
<circle cx="241.966" cy="-0.100851" r="13.8991" fill="#2A2552"/>
</g>
</g>
<defs>
<clipPath id="clip0">
<rect width="255" height="338" fill="white"/>
</clipPath>
</defs>
</svg>
