<svg width="65" height="64" viewBox="0 0 65 64" fill="none" xmlns="http://www.w3.org/2000/svg">
<g filter="url(#filter0_dd)">
<rect x="20.2656" y="10" width="24" height="24" rx="12" fill="white"/>
</g>
<path d="M37.8155 18.5048L35.7605 16.4498C35.4923 16.1979 35.1409 16.0533 34.773 16.0436C34.4052 16.034 34.0466 16.1598 33.7655 16.3973L27.0155 23.1473C26.7731 23.3918 26.6222 23.7122 26.588 24.0548L26.2655 27.1823C26.2554 27.2922 26.2697 27.4029 26.3073 27.5066C26.3449 27.6103 26.4049 27.7044 26.483 27.7823C26.5531 27.8518 26.6362 27.9068 26.7276 27.9441C26.819 27.9815 26.9168 28.0004 27.0155 27.9998H27.083L30.2105 27.7148C30.5531 27.6807 30.8736 27.5297 31.118 27.2873L37.868 20.5373C38.13 20.2605 38.2716 19.8912 38.2618 19.5102C38.2519 19.1292 38.0915 18.7677 37.8155 18.5048ZM30.0755 26.2148L27.8255 26.4248L28.028 24.1748L32.2655 19.9898L34.2905 22.0148L30.0755 26.2148ZM35.2655 21.0098L33.2555 18.9998L34.718 17.4998L36.7655 19.5473L35.2655 21.0098Z" fill="#202020"/>
<defs>
<filter id="filter0_dd" x="0.265625" y="0" width="64" height="64" filterUnits="userSpaceOnUse" color-interpolation-filters="sRGB">
<feFlood flood-opacity="0" result="BackgroundImageFix"/>
<feColorMatrix in="SourceAlpha" type="matrix" values="0 0 0 0 0 0 0 0 0 0 0 0 0 0 0 0 0 0 127 0" result="hardAlpha"/>
<feMorphology radius="5" operator="erode" in="SourceAlpha" result="effect1_dropShadow"/>
<feOffset dy="10"/>
<feGaussianBlur stdDeviation="12.5"/>
<feColorMatrix type="matrix" values="0 0 0 0 0.196078 0 0 0 0 0.196078 0 0 0 0 0.364706 0 0 0 0.25 0"/>
<feBlend mode="normal" in2="BackgroundImageFix" result="effect1_dropShadow"/>
<feColorMatrix in="SourceAlpha" type="matrix" values="0 0 0 0 0 0 0 0 0 0 0 0 0 0 0 0 0 0 127 0" result="hardAlpha"/>
<feMorphology radius="2" operator="erode" in="SourceAlpha" result="effect2_dropShadow"/>
<feOffset dy="2"/>
<feGaussianBlur stdDeviation="4"/>
<feColorMatrix type="matrix" values="0 0 0 0 0 0 0 0 0 0 0 0 0 0 0 0 0 0 0.3 0"/>
<feBlend mode="normal" in2="effect1_dropShadow" result="effect2_dropShadow"/>
<feBlend mode="normal" in="SourceGraphic" in2="effect2_dropShadow" result="shape"/>
</filter>
</defs>
</svg>
