<?xml version="1.0" encoding="utf-8"?>
<!-- Generator: Adobe Illustrator 18.0.0, SVG Export Plug-In . SVG Version: 6.00 Build 0)  -->
<!DOCTYPE svg PUBLIC "-//W3C//DTD SVG 1.1//EN" "http://www.w3.org/Graphics/SVG/1.1/DTD/svg11.dtd">
<svg version="1.1" id="Layer_1" xmlns="http://www.w3.org/2000/svg" xmlns:xlink="http://www.w3.org/1999/xlink" x="0px" y="0px"
	 viewBox="0 0 619 570" enable-background="new 0 0 619 570" xml:space="preserve">
<radialGradient id="SVGID_1_" cx="3.1307" cy="651.0009" r="1" gradientTransform="matrix(4.6014 0 0 -3.5485 378.1682 2745.8391)" gradientUnits="userSpaceOnUse">
	<stop  offset="0" style="stop-color:#FFFFFF"/>
	<stop  offset="1" style="stop-color:#000000"/>
</radialGradient>
<path fill="url(#SVGID_1_)" d="M395.3,440.1l-4.8-8.9c-0.2,0-0.4,0.2-0.7,0.2l4.8,8.9C394.9,440.3,395.1,440.1,395.3,440.1z"/>
<radialGradient id="SVGID_2_" cx="3.1253" cy="650.8071" r="1" gradientTransform="matrix(4.5729 0 0 -3.5264 459.4606 2716.8379)" gradientUnits="userSpaceOnUse">
	<stop  offset="0" style="stop-color:#FFFFFF"/>
	<stop  offset="1" style="stop-color:#000000"/>
</radialGradient>
<path fill="url(#SVGID_2_)" d="M471.6,426.3l4.8-8.9c-0.2,0-0.4-0.2-0.7-0.2l-4.8,8.9C471.3,426.2,471.3,426.3,471.6,426.3z"/>
<path fill="#AFB6E5" d="M476.4,402.7v11.8l-5.2,9.9v-11.8L476.4,402.7z"/>
<radialGradient id="SVGID_3_" cx="3.1307" cy="651.0011" r="1" gradientTransform="matrix(4.6014 0 0 -3.5485 378.1682 2717.4539)" gradientUnits="userSpaceOnUse">
	<stop  offset="0" style="stop-color:#FFFFFF"/>
	<stop  offset="1" style="stop-color:#000000"/>
</radialGradient>
<path fill="url(#SVGID_3_)" d="M395.3,411.7l-4.8-8.9c-0.2,0-0.4,0.2-0.7,0.2l4.8,8.9C394.9,411.8,395.1,411.8,395.3,411.7z"/>
<radialGradient id="SVGID_4_" cx="3.1253" cy="650.8073" r="1" gradientTransform="matrix(4.5729 0 0 -3.5265 459.4606 2702.5276)" gradientUnits="userSpaceOnUse">
	<stop  offset="0" style="stop-color:#FFFFFF"/>
	<stop  offset="1" style="stop-color:#000000"/>
</radialGradient>
<path fill="url(#SVGID_4_)" d="M471.6,412l4.8-8.9c-0.2,0-0.4-0.2-0.7-0.2l-4.8,8.9C471.3,411.8,471.3,412,471.6,412z"/>
<path fill="#CE242B" d="M302.3,89.6l10.7,54.2l-4.6,48.3l-17.9-28.6L302.3,89.6z"/>
<path fill="#2B003D" d="M322.6,154v46l7-3.2v-46.2L322.6,154z"/>
<path fill="#3B0054" d="M322.6,154v46l-72.3-32.2v-46L322.6,154z"/>
<path fill="#4E0070" d="M250.3,121.8l72.3,32.2l7-3.4l-72.3-32.2L250.3,121.8z"/>
<path opacity="0.5" fill="#BB6DF3" enable-background="new    " d="M322.8,169.4l0.4-15.2l6.3-3.7l-7.2,2.5l-49.6-21.2l48.9,22.1
	L322.8,169.4z"/>
<path fill="#F2BBA2" d="M375.9,301.8c-0.4,3.7-2.2,7.2-3.5,9.3c-1.5,2.4-2,5.1-3.5,4.5s0.4-11.5,0.4-11.5L375.9,301.8z"/>
<path fill="#FFD4C0" d="M302.1,188.1c3.9,1.2,4.8,2.5,5.9,4.4c1.1,1.9,3.1,3.9,3.1,3.9s-2.4-0.2-5-0.7c-2.6-0.5-10.9-3.4-10.9-3.4
	L302.1,188.1z"/>
<path fill="#E5E9FF" d="M264.3,74.8c-8.5,1.3-18.8,0.3-11.1,17.3c6.1,13.5,0.4,80.7,5.2,106.1c1.1,6.4,20.1,8.1,20.1,8.1
	s22.9-59.5,22.9-77.3c-0.2-17.9-11.6-48.8-11.6-48.8L264.3,74.8z"/>
<linearGradient id="SVGID_5_" gradientUnits="userSpaceOnUse" x1="268.1972" y1="428.4551" x2="296.3202" y2="450.9791" gradientTransform="matrix(1 0 0 -1 0 572)">
	<stop  offset="5.050510e-003" style="stop-color:#273B98"/>
	<stop  offset="0.2274" style="stop-color:#2F2BA2"/>
	<stop  offset="0.399" style="stop-color:#361CAC"/>
	<stop  offset="0.768" style="stop-color:#440B89"/>
	<stop  offset="1" style="stop-color:#4E0070"/>
</linearGradient>
<path fill="url(#SVGID_5_)" d="M277.6,97l3.1-2.7l-5.9-4l-1.3-0.2l-4.4,5.6l3.7,1.7l4.8,56.8l3.5,28.3c0,0,5.7-12.5,5.7-28.5
	C286.8,136.8,277.6,97,277.6,97z"/>
<path fill="#2B003D" d="M270.2,333.2l-1.1,4.5c-0.4,2.2,0.9,4.4,3.5,5.2c1.3,0.5,2.4,0.8,3.3,1.2c2.4,0.5,18.1,8.1,24.7,9.1
	c7,1,12-0.7,12.2-2.2c0-1.5-1.7-4.2-8.1-7.4c-6.6-3.2-12-11.1-12-11.1L270.2,333.2z"/>
<path fill="#222222" d="M269.7,338.4c0.9,0.8,10,2.2,14.9,5.1c5,3,13.3,7.4,19,8.3c5,0.7,9-1.3,8.5-2.9c-0.7-2.2-5.5-4.2-9.4-6.6
	c-4.1-2.4-8.5-7.9-8.5-7.9l-23.2-1.2L269.7,338.4z"/>
<path fill="#333399" d="M296.4,187.3c0,0,6.1,72.3,6.1,79.2c0,4.4-8.1,62.2-9,67.2c-0.7,5.2-23.8,4.4-23.6-0.8
	c0.2-3.9,2.2-60.3,2.2-60.3l-20.1-75.3l3.5-7.6L296.4,187.3z"/>
<path fill="#CED3F4" d="M272.1,272.7c0,0-2,56.4-2.2,60.3c0,1.9,3.1,3.2,7,3.9l10.7-67.4L268,195.1l-15.9,2.5L272.1,272.7z"/>
<path fill="#2B003D" d="M219.7,352.5l-0.2,4.9c0,1.7,0.9,3.2,2.4,4.4l2,1.5c0,0,4.4,5.1,12.7,9.3c7.2,3.7,16.2,2.7,18.3,1.3
	c2.2-1.3,2.2-2.5-3.3-8.1c-5.5-5.6-13.1-13.6-13.1-13.6L219.7,352.5z"/>
<path fill="#222222" d="M220.4,356.9c0,0,7.9,5.6,10.5,8.9c4.1,4.9,14.9,8.8,22.1,6.9c7.2-1.9-2.4-7.6-4.4-10.1
	c-2-2.5-7.4-8.8-7.4-8.8l-21-0.2L220.4,356.9z"/>
<path fill="#333399" d="M262.8,190.5c0,0-19.7,159.7-21.2,163.7c-1.1,3.4-21.6,3.4-22.1-2.5c-0.2-6.4-5-131.9-6.1-138.3
	c-2.2-15.5-0.4-25.3-0.4-25.3L262.8,190.5z"/>
<path fill="#CED3F4" d="M236.1,192l-22.9-3.5c-0.2,1.9-1.5,11.1,0.4,24.9c0.9,6.4,5.7,131.9,6.1,138.3c0,2,2.4,3.4,5.7,4L236.1,192z
	"/>
<path fill="#FFFFFF" d="M249.2,82c-0.4,5.1,8.5,13.6,16.6,16.7c0.4,0.2,8.5-8.1,8.5-8.1s10,6.4,10,6.2c3.1-6.9,2.6-8.8,2.8-13
	c0.4-4.7-7.9-8.9-18.3-9.4C258.4,73.9,249.7,77.5,249.2,82z"/>
<path fill="#FFD4C0" d="M370,176.2c0,0-15.9-1.3-22.3,1.2c-6.3,2.4-16.6,10.1-16.6,12.5c0,2.2,8.7,5.1,13.8,4
	c5.2-1.2,5.7-1.7,10-2.4c4.1-0.7,12.7-2.7,15.7-4C373.5,186.1,370,176.2,370,176.2z"/>
<path fill="#CE242B" d="M281.3,73.1c0,0,10.3,0.2,17.7,6.1c5.2,4.2,6.3,19.2,6.3,24.1c0,5.1-0.7,62.2-1.7,74.6
	c-0.9,9.8-1.5,19.4-2,24.6c-0.4,6.4-15.7,9.3-17.5,5.9c-1.5-3.2,1.3-30.7,3.3-41.3c1.5-8.8,2.2-58.3,1.1-80.5
	C288.1,76.5,281.3,73.1,281.3,73.1z"/>
<path fill="#CE242B" d="M261.2,74.8c0,0-12.4,2-9.6,9.4c3.1,7.2,11.6,19.5,17.5,36.7c7,19.7,5.7,79.7,1.3,89.8
	c-2.8,6.9-64,7.6-62.9-6.1c0.4-4.2,3.5-97.9,6.6-104.9c3.9-9.4,22.9-16,35.2-20.9C253.4,77,257.1,75.5,261.2,74.8z"/>
<linearGradient id="SVGID_6_" gradientUnits="userSpaceOnUse" x1="230.5189" y1="351.5443" x2="237.6339" y2="421.4313" gradientTransform="matrix(1 0 0 -1 0 572)">
	<stop  offset="5.050510e-003" style="stop-color:#5277F7"/>
	<stop  offset="0.393" style="stop-color:#7670F4"/>
	<stop  offset="0.5253" style="stop-color:#836DF3"/>
	<stop  offset="0.6478" style="stop-color:#8C6DF3"/>
	<stop  offset="0.846" style="stop-color:#A46DF3"/>
	<stop  offset="1" style="stop-color:#BB6DF3"/>
</linearGradient>
<path fill="url(#SVGID_6_)" d="M220.8,176.9c0,0,6.8,1.5,13.5,2.5c7,1,15.3,2,15.3,2s0.2,6.2-3.7,6.7c-3.9,0.5-24.9-2-26.4-3.9
	C218.2,182.4,220.8,176.9,220.8,176.9z"/>
<path fill="#FFD4C0" d="M320.9,170.6c0,0,3.7,2.2,6.6,2.5c2.8,0.2,12.4,0,15.5,0.8s12.2,2.9,12.5,4.9c0.2,1.9-3.1,0.7-5.9,0.3
	c-2.6-0.3-7.2-0.5-7.2-0.5s5.5,4.4,9,5.9c3.5,1.5,9,2.2,9.8,3.7c0.9,1.5-0.2,2.9-3.1,4.4c-4.2,2.2-7.6,1.5-11.1,1.7
	c-6.1,0.2-13.3-1.7-16.2-3.5c-2.8-1.9-10.9-6.7-12.9-7.6c-1.7-0.8-8.5-2.7-8.5-2.7l11.1-9.6L320.9,170.6z"/>
<path opacity="0.5" fill="#F1D5BE" enable-background="new    " d="M358,192.4c2.8-1.5,3.9-2.9,3.1-4.4c-0.2-0.2-0.4-0.5-0.9-0.7
	c-2.2,2.2-9.6,3.4-14.2,2.5c-4.8-0.8-17.5-7.2-21-9.9c-2-1.3-7.9-3.2-13.5-4.5l-2.2,4.5c0,0,6.6,1.9,8.5,2.7
	c1.7,0.8,10,5.7,12.9,7.6c2.8,1.9,10,3.7,16.2,3.5C350.3,193.9,353.8,194.7,358,192.4z"/>
<path d="M368.9,175.5c0,0-3.5,2.5-2.8,7.1c0.9,4.5,3.5,6.6,3.5,6.6l60.1-0.5c0,0,45.2,1.3,43-12.8c-2-13.5-14-12.8-40-7.6
	C406.7,173.5,368.9,175.5,368.9,175.5z"/>
<path fill="#F1D5BE" d="M333.7,180.7c-0.9,0.8-0.4,2.7,2.6,2.9c3.1,0.2,9.8-0.3,12.5-0.3s15.1-3.7,15.1-3.7L333.7,180.7z"/>
<path fill="#FFD4C0" d="M349,176.4c-3.1,1.3-7.6,2-10,3c-2.4,1-4.6,0.5-5.2,1.3c-0.7,0.8-0.2,3.2,5.9,2.2c6.1-1,9.6-1.7,13.1-1.7
	c3.7,0.2,10.7,0,12-1.5c1.3-1.5-1.1-3.5-1.1-3.5L349,176.4z"/>
<path fill="#FFD4C0" d="M328.7,189.7c-0.7-0.8,5.5-0.7,7.2-0.2c1.7,0.5,8.3,2.5,9.6,3.2c1.1,0.5,2.4,1.3-1.3,1.5
	C336.6,194.7,330.9,193,328.7,189.7z"/>
<path fill="#FFD4C0" d="M284.8,61.5c0.4-3-4.6-6.1-11.4-6.9c-6.8-0.7-12.7,1.2-13.3,4.2l-6.3,22.1c-0.7,3.7,5.5,7.4,13.5,8.3
	s15.3-1.3,15.9-5.1C283.3,84.2,284.8,61.5,284.8,61.5z"/>
<path fill="#F1D5BE" d="M263,69.7c-1.3-3.4-2-8.4-1.3-13.1c2.4-1.7,6.8-2.5,11.8-2c6.8,0.7,11.8,3.9,11.4,6.9l-1.5,22.6
	c-0.2,0.8-0.7,1.5-1.3,2.2C273,83.7,265.4,75.5,263,69.7z"/>
<path fill="#FFD4C0" d="M294.4,46c5.9,8.4,0.7,35.7-10.5,35.9c-11.1,0-21.8-10.4-24.7-17.5c-2.8-7.1-2.8-21.7,6.8-25.3
	C275.9,35.4,288.3,37.6,294.4,46z"/>
<path fill="#CE242B" d="M247.7,143.5l-21.6-47.8l-8.7-0.5c-1.3,1.3-2.4,2.9-3.1,4.4c-3.1,7.1-6.1,100.7-6.6,104.9
	c-0.4,5.6,10.5,8.9,23.6,10.4l-2-59.5c0,0,10.9,18.4,15.1,19.7c2,0.7,52.9,15.5,58.3,17.2c0.4-4.4,0.7-9.3,1.1-14.3
	c0-1.3,0.2-3.2,0.2-5.6L247.7,143.5z"/>
<path fill="#35004D" d="M481.2,427c0,0,1.5,4.2,0.4,6.1c-1.1,1.9-6.1,3.2-10.3,1.7c-4.1-1.5-5.9-4.7-7.4-5.6
	c-1.5-0.8-10.3-1.7-16.6-5.9c-6.6-4.2-5.7-8.9,0.9-8.9c6.6-0.2,18.1,2.2,22.5,4.4C474.6,420.8,481.2,427,481.2,427z"/>
<path d="M478.1,431.5c-4.6,0.7-10.5-2.4-13.3-4.2c-2.8-1.9-7.6-0.8-13.8-4.7c-6.3-3.9-8.5-6.4-5.7-7.7c2.8-1.3,13.3-0.8,21.4,2.5
	c8.1,3.4,13.5,5.9,13.5,5.9s2,4.7,1.1,5.7C480.3,430,480.7,431.2,478.1,431.5z"/>
<path fill="#330033" d="M470.7,262.8c0,0,7.4,3.4,6.3,17c-0.4,3.9,4.8,147.6,4.8,147.6s-7,2-10,1c-4.4-1.2-11.4-5.4-11.4-5.4
	l-30.8-149.2L470.7,262.8z"/>
<path fill="#35004D" d="M422.6,443.2c0,0,2.6,5.4-0.7,6.6c-3.3,1.2-8.1,1.9-12.2,0.5c-3.9-1.2-5.7-2.5-10-2.5c-4.4,0-21-5.7-24-8.6
	c-3.3-2.9,0-6.1,7.9-5.7c7.9,0.3,19.2,1,21.4,1.5C407.1,435.8,422.6,443.2,422.6,443.2z"/>
<path d="M418.9,447.2c-7.4,0.7-9.8-0.8-16.8-1.9c-6.8-1-26.4-6.6-26-9.6c0.4-3,4.8-2.4,8.7-2.2c3.7,0.2,15.9,0.8,16.8,0.8
	s20.5,6.2,20.5,6.2s1.5,4.5,0.2,5.2C421.1,446.5,421.1,447,418.9,447.2z"/>
<path fill="#330033" d="M448.2,253.2c0,0,9.6,12.3,3.7,30c-5.9,17.9-31,86.1-31,86.1s1.5,64.7,1.5,73.1c0,2.5-7.2,3.7-14.6,1.9
	c-9.4-2.4-9.2-4.4-9.8-7.7c-0.4-3-10.9-59.1-10-75.5c1.3-21.6,6.6-87.3,6.6-87.3L448.2,253.2z"/>
<path d="M456.3,161.2c9.4,1.3,19,3.4,20.5,20.9c1.5,14.3,5.5,109.5,5.5,109.5s-16.8,11.8-60.7,10.6c-29.9-0.8-30.6-6.6-30.6-6.6
	s-1.5-59-2.4-90.3c-0.4-14.7,2.2-18.5,8.3-22.4c4.8-3,18.8-10.8,28.8-15.3C434.2,163.9,448.2,160,456.3,161.2z"/>
<path fill="#090B18" d="M391.2,295.4c0,0-1.5-58.8-2.4-90.3c0-0.5,0.2-1,0.2-1.5l28.2-1.2c4.4,32.2,4.8,93.7,4.8,93.7
	s-0.9,5.7,23.2,5.2c-6.8,0.7-14.6,1-23.4,0.7C391.8,301.3,391.2,295.4,391.2,295.4z"/>
<path fill="#FFFFFF" d="M432.1,167.1c-9.4,0.5-16.8,3.8-16.4,7.4c0.3,3.6,8.2,6.2,17.6,5.7c9.4-0.5,16.8-3.8,16.4-7.4
	C449.3,169.2,441.5,166.7,432.1,167.1z"/>
<path fill="#FFD4C0" d="M447.3,171.3c0.4,0.8,0,1.7-0.7,2.4c-1.1,1.3-6.6,4.4-14,4.5c-7.4,0.2-11.1-1.2-13.1-2
	c-1.1-0.5-1.7-1.2-1.7-2l-1.7-7.7c0,0-7.9,0.5-10.3-1.7c-2.4-2.2-11.4-30.7-0.7-38.1c10.7-7.4,35.2-6.1,39.5,6.9
	c4.4,13-2.8,20.2-3.5,23.2C440.8,159.5,445.4,168.1,447.3,171.3z"/>
<path d="M441.4,159.2c0,0-8.7,2.5-12.4,1.7c-6.8-1.3-7-13.3-11.6-15.8c-2.8-1.5-5,0.3-4.6,2.5c0.2,1.7-0.2,3-1.1,3.2
	c-0.9,0.2-5.7-9.9-5.7-9.9s-18.3-6.6-13.5-18.5c5.9,2.9,43-12,54.2,8.8C455.6,147.4,445.4,158.2,441.4,159.2z"/>
<path fill="#CED3F4" d="M445.1,304.5c-2.2,5.6-4.4,11.5-6.6,17.3L460.4,423c0,0,2.8,1.7,5.9,3.2
	C462.8,405.3,446.9,317.3,445.1,304.5z"/>
<path fill="#CE242B" d="M220.2,94.3c-12.2,4.5-8.1,18.9-2.4,28.5c3.7,6.4,8.7,16,11.8,22.2c3.1,6.2,10,20.2,18.8,23.9
	c8.5,3.5,67.3,15.2,67.3,15.2l7.4-13.3l-58.8-21.9c0,0-9.8-25.3-13.1-31.8C245.7,105.9,239.8,87.1,220.2,94.3z"/>
<path d="M287.4,55.2c13.3,0.5,16.2-4.9,14-10.4c-2-4.7-14.9-12-33-10.6s-15.5,17.3-15.3,23.8c0.2,6.2,1.5,11.5,4.4,9.8
	c2.8-1.7-0.4-8.9,2.8-9.9c1.7-0.5,3.3,0.8,3.9,2.4c0.7,2.9-1.5,10.6,0.9,13.6c2.6,3.5,14.4,11.1,21.4,8.4c7.4-3,8.1-10.6,8.1-10.6
	s-2.6-0.8-6.1-0.7c-5.7,0.2-11.6,3.2-11.6,3.2s-8.1-3-8.7-5.6c-0.4-1.5,1.5-9.3,2.8-15C273.5,53.9,278.5,54.9,287.4,55.2z
	 M285.3,73.1c0.4,0,3.3-0.3,3.5-0.3c3.5-0.3,2.6,1.9,2.6,1.9s-0.4,0.8-4.1,1.2c-3.5,0.3-5-0.3-5-0.3S282.2,73.6,285.3,73.1z"/>
<linearGradient id="SVGID_7_" gradientUnits="userSpaceOnUse" x1="384.2499" y1="244.1235" x2="376.5219" y2="301.4425" gradientTransform="matrix(1 0 0 -1 0 572)">
	<stop  offset="0" style="stop-color:#836DF3"/>
	<stop  offset="0.137" style="stop-color:#926DF3"/>
	<stop  offset="0.4015" style="stop-color:#BB6DF3"/>
	<stop  offset="0.404" style="stop-color:#BB6DF3"/>
	<stop  offset="0.6062" style="stop-color:#CA6DEA"/>
	<stop  offset="0.9962" style="stop-color:#F36DD4"/>
	<stop  offset="1" style="stop-color:#F36DD4"/>
</linearGradient>
<path fill="url(#SVGID_7_)" d="M382,277.9v-1.7c0-2.2-2-4.7-4.4-5.9l-21-9.3c-2.4-1-4.4-0.2-4.4,2v3.5l-2-0.8c-2.4-1-4.4-0.2-4.4,2
	v31.5c0,2.2,2,4.9,4.6,6.1c0,0,56.4,25.1,57,25.4c3.5,1.5,6.3,0.3,6.3-2.9v-35.7L382,277.9z"/>
<path fill="#E5E9FF" d="M411.7,325.1c0,1-0.9,1.5-2.2,1c-1.1-0.5-2.2-1.9-2.2-2.9v-3.7v-3.2v-21.2L375.5,281v-1.7
	c0-2.2-2-4.7-4.4-5.9l-12.7-5.6v-3.5c0-0.2,0-0.2,0.2,0l52.9,23.2v37.6H411.7z"/>
<path fill="#FFFFFF" d="M409.5,325.9c0,1-0.9,1.5-2.2,1c-1.1-0.5-2.2-1.9-2.2-2.9v-3.7v-3.2v-21.2l-31.9-14.1v-1.7
	c0-2.2-2-4.7-4.4-5.9l-12.7-5.6v-3.5c0-0.2,0-0.2,0.2,0l52.9,23.2v37.6H409.5z"/>
<path fill="#FFD4C0" d="M365.6,291.1c0,0-7,6.6-10,10.9c-1.7,2.4-1.5,2.9-0.9,7.7c0.4,2.4,0.9,4,2.6,4c0.7,0,0.2-1.3,0.2-1.3
	s0.2,2.2,2.2,2.7c2,0.3,0.9-1.5,0.9-1.5s0.4,2.4,2.4,2.7c2,0.3,0.9-1.7,0.9-1.7s0.7,2.5,2.2,3c1.5,0.5,1.7-0.3,1.7-2
	c0-2,1.1-3.9,3.5-7.1c2.6-3.5,4.6-5.1,4.4-8.3c-0.2-3.2,3.3-6.1,3.3-6.1L365.6,291.1z"/>
<path d="M397.7,186.6c10.7-2.9,21.4,2.2,23.8,10.9c2.6,8.6-2.8,41.6-7.2,50.7c-4.4,9.1-36.9,50.7-36.9,50.7s-4.8-0.2-9.4-1.9
	c-4.6-1.7-5-3.5-5-3.5s17-39.2,20.5-47.3c3.5-8.1,3.3-31,4.4-40.3C389.2,194.7,387.3,189.5,397.7,186.6z"/>
<linearGradient id="SVGID_8_" gradientUnits="userSpaceOnUse" x1="601.2559" y1="564.2585" x2="589.9489" y2="508.1253" gradientTransform="matrix(1 0 0 -1 0 572)">
	<stop  offset="0" style="stop-color:#836DF3"/>
	<stop  offset="0.5505" style="stop-color:#5277F7"/>
	<stop  offset="1" style="stop-color:#66CCFF"/>
</linearGradient>
<path fill="url(#SVGID_8_)" d="M601.7,15.7c0.2-0.5,0.2-0.8,0-1c-0.2-0.2-0.9,0.2-1.1,0.5l-4.1,5.6c0.4,0.2,0.9,0.3,1.1,0.5
	L601.7,15.7z"/>
<linearGradient id="SVGID_9_" gradientUnits="userSpaceOnUse" x1="591.0869" y1="566.307" x2="579.7798" y2="510.173" gradientTransform="matrix(1 0 0 -1 0 572)">
	<stop  offset="0" style="stop-color:#836DF3"/>
	<stop  offset="0.5505" style="stop-color:#5277F7"/>
	<stop  offset="1" style="stop-color:#66CCFF"/>
</linearGradient>
<path fill="url(#SVGID_9_)" d="M589.3,21.2V16c0-0.3-0.4-0.5-0.9-0.3c-0.4,0.2-0.9,0.7-0.9,1v5.2c0.2-0.2,0.7-0.3,0.9-0.3
	C588.6,21.4,588.9,21.4,589.3,21.2z"/>
</svg>
