<?xml version="1.0" encoding="utf-8"?>
<!-- Generator: Adobe Illustrator 18.0.0, SVG Export Plug-In . SVG Version: 6.00 Build 0)  -->
<!DOCTYPE svg PUBLIC "-//W3C//DTD SVG 1.1//EN" "http://www.w3.org/Graphics/SVG/1.1/DTD/svg11.dtd">
<svg version="1.1" id="Layer_1" xmlns="http://www.w3.org/2000/svg" xmlns:xlink="http://www.w3.org/1999/xlink" x="0px" y="0px"
	 viewBox="0 0 612 792" enable-background="new 0 0 612 792" xml:space="preserve">
<path fill="#F79E1B" d="M332.3,477.1v-0.5h0.2v-0.1H332v0.1h0.2L332.3,477.1L332.3,477.1z M333.3,477.1v-0.7h-0.1l-0.2,0.4l-0.2-0.4
	h-0.1v0.7h0.1v-0.4l0.1,0.4h0.1l0.1-0.4v0.4H333.3z"/>
<image overflow="visible" enable-background="new    " width="1558" height="1397" xlink:href="../../../../../Downloads/1621867268267.png"  transform="matrix(0.4781 0 0 0.4781 -3983.2595 -3854.7703)">
</image>
<g>
	<g>
		<path fill="#040045" d="M228.6,238.6h154.6c4.1,0,7.5,3.4,7.5,7.5v254c0,4.1-3.4,7.5-7.5,7.5H228.6c-4.1,0-7.5-3.4-7.5-7.5v-254
			C221.1,242,224.5,238.6,228.6,238.6z"/>
		<path fill="#040045" d="M228.6,238.6h154.6c4.1,0,7.5,3.4,7.5,7.5v254c0,4.1-3.4,7.5-7.5,7.5H228.6c-4.1,0-7.5-3.4-7.5-7.5v-254
			C221.1,242,224.5,238.6,228.6,238.6z"/>
	</g>
	
		<linearGradient id="SVGID_1_" gradientUnits="userSpaceOnUse" x1="248.582" y1="380.635" x2="276.222" y2="338.2418" gradientTransform="matrix(0.7515 0 0 0.7515 164.7229 -7.1656)">
		<stop  offset="0" style="stop-color:#F2F2F2"/>
		<stop  offset="1" style="stop-color:#D9D9D9"/>
	</linearGradient>
	<path fill="url(#SVGID_1_)" d="M373.5,249.8c0-2.1-1.7-3.9-3.8-3.9h-16.4c-2.1,0-3.8,1.7-3.8,3.9v27.7c0,2.1,1.7,3.9,3.8,3.9h16.4
		c2.1,0,3.8-1.7,3.8-3.9V249.8z"/>
	<path fill="#B3B3B3" d="M356.7,249.1h-0.1v12h0.1V249.1z"/>
	<path fill="#B3B3B3" d="M366.2,249.1h-0.1v12h0.1V249.1z"/>
	<path fill="#B3B3B3" d="M356.8,266.4h-0.1v12h0.1V266.4z"/>
	<path fill="#B3B3B3" d="M366.1,266.4H366v12h0.1V266.4z"/>
	<path fill="#B3B3B3" d="M372.5,266.4v-0.1h-24v0.1H372.5z"/>
	<path fill="#B3B3B3" d="M369.4,261.1V261h-15.9v0.1H369.4z"/>
	<path fill="#B3B3B3" d="M360.3,258v-0.1H353v0.1H360.3z"/>
	<g opacity="0.75">
		<g opacity="0.75">
			<g opacity="0.75">
				<path opacity="0.75" fill="#FFFFFF" enable-background="new    " d="M327.5,266.5c0.3,0.3,0.9,0.3,1.2,0c0.3-0.3,0.3-0.9,0-1.2
					c-0.9-0.9-0.9-2.4,0-3.3c0.1-0.1,0.2-0.4,0.2-0.6c0-0.2-0.1-0.4-0.2-0.6c-0.3-0.3-0.9-0.3-1.2,0
					C326,262.4,326,264.9,327.5,266.5z"/>
				<path opacity="0.75" fill="#FFFFFF" enable-background="new    " d="M325.1,269c0.3,0.3,0.9,0.3,1.2,0c0.3-0.3,0.3-0.9,0-1.2
					c-2.2-2.3-2.2-6.1,0.1-8.3c0.1-0.1,0.2-0.4,0.2-0.6s-0.1-0.4-0.2-0.6c-0.3-0.3-0.9-0.3-1.2,0C322.3,261.2,322.2,266,325.1,269z"
					/>
				<path opacity="0.75" fill="#FFFFFF" enable-background="new    " d="M322.4,255.5c-4.5,4.4-4.6,11.8-0.2,16.3
					c0.3,0.3,0.9,0.3,1.2,0c0.3-0.3,0.3-0.9,0-1.2c-1.8-1.9-2.8-4.4-2.8-7c0-2.6,1.1-5.1,3-6.9c0.1-0.1,0.2-0.4,0.2-0.6
					c0-0.2-0.1-0.4-0.2-0.6C323.3,255.2,322.7,255.2,322.4,255.5z"/>
				<path opacity="0.75" fill="#FFFFFF" enable-background="new    " d="M329.7,263.8c0-0.5,0.4-0.9,0.9-0.9c0.5,0,0.9,0.4,0.9,0.9
					c0,0.5-0.4,0.9-0.9,0.9C330.2,264.7,329.7,264.3,329.7,263.8z"/>
			</g>
		</g>
	</g>
	<path fill="#FF5F00" d="M319.9,454.1H304V480h15.9V454.1z"/>
	<path fill="#FF1575" d="M304.8,467c0-5,2.3-9.8,6.3-13c-2.9-2.2-6.5-3.5-10.2-3.5c-9,0-16.5,7.5-16.5,16.5c0,9,7.5,16.5,16.5,16.5
		c3.7,0,7.3-1.3,10.2-3.5C307.1,476.9,304.8,472.1,304.8,467z"/>
	<path fill="#FF5926" d="M285.8,467c0-5,2.3-9.8,6.3-13c-2.9-2.2-6.5-3.5-10.2-3.5c-9,0-16.5,7.5-16.5,16.5c0,9,7.5,16.5,16.5,16.5
		c3.7,0,7.3-1.3,10.2-3.5C288.1,476.9,285.8,472.1,285.8,467z"/>
	<path fill="#ECFF22" d="M338.6,467c0,9-7.5,16.5-16.5,16.5c-3.7,0-7.3-1.3-10.2-3.5c4-3.2,6.3-7.9,6.3-13c0-5-2.3-9.8-6.3-13
		c2.9-2.2,6.5-3.5,10.2-3.5C331.2,450.6,338.6,458,338.6,467L338.6,467z"/>
	<text transform="matrix(1 0 0 1 265.4208 422.6768)" fill="#F7F728" font-family="'Mistral'" font-size="18.0354">DERIVE CAPITAL</text>
	
		<image overflow="visible" enable-background="new    " width="1558" height="1397" xlink:href="../../../../../Downloads/1621867268267.png"  transform="matrix(4.948594e-002 0 0 5.182875e-002 265.5052 316.7614)">
	</image>
</g>
</svg>
