<?xml version="1.0" encoding="utf-8"?>
<!-- Generator: Adobe Illustrator 18.0.0, SVG Export Plug-In . SVG Version: 6.00 Build 0)  -->
<!DOCTYPE svg PUBLIC "-//W3C//DTD SVG 1.1//EN" "http://www.w3.org/Graphics/SVG/1.1/DTD/svg11.dtd">
<svg version="1.1" id="Слой_1" xmlns="http://www.w3.org/2000/svg" xmlns:xlink="http://www.w3.org/1999/xlink" x="0px" y="0px"
	 viewBox="0 0 612 792" enable-background="new 0 0 612 792" xml:space="preserve">
<g>
	<g>
		<path fill="#2B478B" d="M348.4,463.7h-82.9c-8.1,0-14.8-6.7-14.8-14.8V266.7c0-8.1,6.7-14.8,14.8-14.8h82.9
			c8.1,0,14.8,6.7,14.8,14.8v182.2C363.2,457.1,356.5,463.7,348.4,463.7z"/>
		<g>
			<path fill="#010030" d="M357.6,268.1v177.9c0,6-4.9,11-10.9,11h-79.6c-6,0-10.9-4.9-10.9-11V268.1c0-6,4.9-11,10.9-11h79.6
				C352.7,257.2,357.6,262.1,357.6,268.1z"/>
			<path fill="#010030" d="M346.7,257.2l-78.6,199.9h-1c-6,0-10.9-4.9-10.9-11V268.1c0-6,4.9-11,10.9-11
				C267.2,257.2,346.7,257.2,346.7,257.2z"/>
		</g>
		<path fill="#2B478B" d="M323.5,263.8h-33.3c-2.7,0-4.9-2.2-4.9-4.9v-0.8c0-2.7,2.2-4.9,4.9-4.9h33.3c2.7,0,4.9,2.2,4.9,4.9v0.8
			C328.5,261.6,326.3,263.8,323.5,263.8z"/>
	</g>
	<path fill="#3AD4AF" d="M301,360.8h113.1c3.9,0,7.1-3.2,7.1-7.1v-45.3c0-3.9-3.2-7.1-7.1-7.1H301c-3.9,0-7.1,3.2-7.1,7.1v45.3
		C293.9,357.6,297.1,360.8,301,360.8z"/>
	<g>
		<path fill="#F99746" d="M324.2,294.4h-44.3c-3.3,0-5.9-2.7-5.9-5.9v-8.4c0-3.3,2.7-5.9,5.9-5.9h44.3c3.3,0,5.9,2.7,5.9,5.9v8.4
			C330.1,291.8,327.5,294.4,324.2,294.4z"/>
	</g>
	<g>
		<path fill="#3AD4AF" d="M322.3,443.3h-51.1c-3.9,0-7.1-3.2-7.1-7.1v-10.8c0-3.9,3.2-7.1,7.1-7.1h51.1c3.9,0,7.1,3.2,7.1,7.1v10.8
			C329.4,440.1,326.2,443.3,322.3,443.3z"/>
	</g>
	<g>
		<path fill="#F99746" d="M342.1,407.9h-48.2c-4.7,0-8.5-3.8-8.5-8.5v-18.9c0-4.7,3.8-8.5,8.5-8.5h48.2c4.7,0,8.5,3.8,8.5,8.5v18.9
			C350.7,404,346.8,407.9,342.1,407.9z"/>
	</g>
	<path fill="#FFFFFF" d="M412.1,330.6c0,4.3-1.4,8.1-3.8,11.3c-0.8,1.1-1.7,2-2.7,2.8c-3.2,2.7-7.4,4.4-12,4.4
		c-4.1,0-7.9-1.3-11-3.6c-1.3-1-2.6-2.2-3.6-3.5c-2.4-3.1-3.8-7-3.8-11.3c0-10.2,8.3-18.5,18.5-18.5
		C403.9,312.2,412.1,320.5,412.1,330.6z"/>
	<path fill="#2B478B" d="M400.6,336.8c0,0-0.1-0.1-0.1-0.1c-0.2-0.2-0.4-0.3-1.3-0.4c-0.4-0.1-1.1-0.1-1.9-0.3c0,0-0.2,0-0.3,0
		c0,0-0.1,0-0.2,0c-0.2-0.1-0.3-1.1-0.3-2.2c0-0.1,0-0.1,0-0.2c0-0.4,0-0.8,0-1.1v0c0.5,0,0.9,0,0.9,0c1-0.1,1.6-2.7,1.8-4.8
		c0,0,0.5-1.1,0.5-2.4c0-0.7-0.1-1.4-0.6-2c-0.2-0.3-0.5-0.5-0.7-0.6c0,0-0.1-0.1-0.2-0.2c-0.9-1-4.6-4.8-7.1-2.6
		c0-0.2-0.9-2.7-4.7-1.9c0.2,0,2-0.2,2.4,0.5c-0.1,0-1.5-0.7-2.5-0.1c-0.4,0.3-0.7,0.8-0.9,1.4l0,0l0,0l0,0l0,0c0,0.1,0,0.1,0,0.2
		c0,0,0,0,0,0l0,0l0,0c-0.1,0.6-0.1,1.1,0,1.4c0.1,0.6,1.2,2.4,1.9,2.4c0.3,0,0.6-0.1,0.8-0.2c-0.1,0.3-0.2,0.7-0.3,1.1
		c-0.8,3.5,1.6,6.2,2.8,5.5c0.8-0.4,1.3,1,1.3,1l0,0c-0.1,2.6-0.8,4.3-1.3,4.7c-0.2,0-0.6,0.1-1.1,0.1l0,0c0,0-1.8,0.2-3.2,0.8
		c0,0,0,0,0,0c-0.3,0.1-0.6,0.3-0.8,0.4l0,0l0,0c-0.1,0.1-0.2,0.2-0.2,0.3c0,0,0,0.1-0.1,0.1c-0.5,0.9-0.9,2.2-1.3,3.7
		c2.6,2,5.8,3.1,9.4,3.1c3.9,0,7.4-1.4,10.1-3.7C402.3,338.4,401.2,337.3,400.6,336.8z"/>
	<path fill="#FFFFFF" d="M325.2,320.2h-21c-0.7,0-1.3-0.6-1.3-1.3v-0.6c0-0.7,0.6-1.3,1.3-1.3h21c0.7,0,1.3,0.6,1.3,1.3v0.6
		C326.6,319.6,325.9,320.2,325.2,320.2z"/>
	<g>
		<path fill="#FFFFFF" d="M327.5,333h-21.5c-0.6,0-1.1-0.5-1.1-1.1l0,0c0-0.6,0.5-1.1,1.1-1.1h21.5c0.6,0,1.1,0.5,1.1,1.1l0,0
			C328.6,332.6,328.2,333,327.5,333z"/>
		<path fill="#FFFFFF" d="M318,338.1h-12.2c-0.5,0-0.8-0.4-0.8-0.8v-0.5c0-0.5,0.4-0.8,0.8-0.8H318c0.5,0,0.8,0.4,0.8,0.8v0.5
			C318.9,337.7,318.5,338.1,318,338.1z"/>
		<path fill="#FFFFFF" d="M342.9,338.1h-19.7c-0.6,0-1.1-0.5-1.1-1.1v-0.1c0-0.6,0.5-1.1,1.1-1.1h19.7c0.6,0,1.1,0.5,1.1,1.1v0.1
			C343.9,337.6,343.5,338.1,342.9,338.1z"/>
		<path fill="#FFFFFF" d="M361.4,333h-28.2c-0.6,0-1.1-0.5-1.1-1.1l0,0c0-0.6,0.5-1.1,1.1-1.1h28.2c0.6,0,1.1,0.5,1.1,1.1l0,0
			C362.4,332.6,362,333,361.4,333z"/>
		<path fill="#FFFFFF" d="M327.5,343.1h-21.5c-0.6,0-1.1-0.5-1.1-1.1l0,0c0-0.6,0.5-1.1,1.1-1.1h21.5c0.6,0,1.1,0.5,1.1,1.1l0,0
			C328.6,342.6,328.2,343.1,327.5,343.1z"/>
		<path fill="#FFFFFF" d="M361.4,343.1h-28.2c-0.6,0-1.1-0.5-1.1-1.1l0,0c0-0.6,0.5-1.1,1.1-1.1h28.2c0.6,0,1.1,0.5,1.1,1.1l0,0
			C362.4,342.6,362,343.1,361.4,343.1z"/>
	</g>
	<path fill="#FFFFFF" d="M355.9,322.4h-15.1c-0.6,0-1.1-0.5-1.1-1.1v-1c0-0.6,0.5-1.1,1.1-1.1h15.1c0.6,0,1.1,0.5,1.1,1.1v1
		C357,321.9,356.5,322.4,355.9,322.4z"/>
	<g>
		<path fill="#699DEE" d="M287.2,425.4h-14.9c-0.5,0-1-0.4-1-1V424c0-0.5,0.4-1,1-1h14.9c0.5,0,1,0.4,1,1v0.4
			C288.1,424.9,287.7,425.4,287.2,425.4z"/>
		<g>
			<path fill="#699DEE" d="M287.4,431.3h-15.3c-0.4,0-0.8-0.3-0.8-0.8l0,0c0-0.4,0.3-0.8,0.8-0.8h15.3c0.4,0,0.8,0.3,0.8,0.8l0,0
				C288.1,431,287.8,431.3,287.4,431.3z"/>
			<path fill="#699DEE" d="M280.6,434.9h-8.7c-0.3,0-0.6-0.3-0.6-0.6V434c0-0.3,0.3-0.6,0.6-0.6h8.7c0.3,0,0.6,0.3,0.6,0.6v0.4
				C281.2,434.6,280.9,434.9,280.6,434.9z"/>
			<path fill="#699DEE" d="M298.3,434.9h-14.1c-0.4,0-0.7-0.3-0.7-0.7v0c0-0.4,0.3-0.7,0.7-0.7h14.1c0.4,0,0.7,0.3,0.7,0.7v0
				C299,434.6,298.7,434.9,298.3,434.9z"/>
			<path fill="#699DEE" d="M311.4,431.3h-20c-0.4,0-0.8-0.3-0.8-0.8l0,0c0-0.4,0.3-0.8,0.8-0.8h20c0.4,0,0.8,0.3,0.8,0.8l0,0
				C312.2,431,311.8,431.3,311.4,431.3z"/>
			<path fill="#699DEE" d="M287.4,438.5h-15.3c-0.4,0-0.8-0.3-0.8-0.8l0,0c0-0.4,0.3-0.8,0.8-0.8h15.3c0.4,0,0.8,0.3,0.8,0.8l0,0
				C288.1,438.2,287.8,438.5,287.4,438.5z"/>
			<path fill="#699DEE" d="M311.4,438.5h-20c-0.4,0-0.8-0.3-0.8-0.8l0,0c0-0.4,0.3-0.8,0.8-0.8h20c0.4,0,0.8,0.3,0.8,0.8l0,0
				C312.2,438.2,311.8,438.5,311.4,438.5z"/>
		</g>
		<path fill="#699DEE" d="M301.7,425.4H291c-0.4,0-0.8-0.4-0.8-0.8v-0.7c0-0.4,0.4-0.8,0.8-0.8h10.7c0.4,0,0.8,0.4,0.8,0.8v0.7
			C302.5,425,302.1,425.4,301.7,425.4z"/>
	</g>
	<g>
		<path fill="#699DEE" d="M297.1,280.4h-14.9c-0.5,0-1-0.4-1-1V279c0-0.5,0.4-1,1-1h14.9c0.5,0,1,0.4,1,1v0.4
			C298,280,297.6,280.4,297.1,280.4z"/>
		<g>
			<path fill="#699DEE" d="M297.3,286.4H282c-0.4,0-0.8-0.3-0.8-0.8l0,0c0-0.4,0.3-0.8,0.8-0.8h15.3c0.4,0,0.8,0.3,0.8,0.8l0,0
				C298,286,297.7,286.4,297.3,286.4z"/>
			<path fill="#699DEE" d="M290.5,290h-8.7c-0.3,0-0.6-0.3-0.6-0.6V289c0-0.3,0.3-0.6,0.6-0.6h8.7c0.3,0,0.6,0.3,0.6,0.6v0.4
				C291.1,289.7,290.8,290,290.5,290z"/>
			<path fill="#699DEE" d="M308.2,290h-14.1c-0.4,0-0.7-0.3-0.7-0.7v0c0-0.4,0.3-0.7,0.7-0.7h14.1c0.4,0,0.7,0.3,0.7,0.7v0
				C308.9,289.7,308.6,290,308.2,290z"/>
			<path fill="#699DEE" d="M321.3,286.4h-20c-0.4,0-0.8-0.3-0.8-0.8l0,0c0-0.4,0.3-0.8,0.8-0.8h20c0.4,0,0.8,0.3,0.8,0.8l0,0
				C322.1,286,321.7,286.4,321.3,286.4z"/>
		</g>
		<path fill="#699DEE" d="M311.6,280.4h-10.7c-0.4,0-0.8-0.4-0.8-0.8v-0.7c0-0.4,0.4-0.8,0.8-0.8h10.7c0.4,0,0.8,0.4,0.8,0.8v0.7
			C312.4,280.1,312,280.4,311.6,280.4z"/>
	</g>
	<g>
		<path fill="#ED7D2B" d="M310.2,381.1h-16.3c-0.6,0-1.1-0.5-1.1-1.1v-0.5c0-0.6,0.5-1.1,1.1-1.1h16.3c0.6,0,1.1,0.5,1.1,1.1v0.5
			C311.3,380.6,310.8,381.1,310.2,381.1z"/>
		<g>
			<path fill="#ED7D2B" d="M310.4,387.6h-16.7c-0.5,0-0.8-0.4-0.8-0.8l0,0c0-0.5,0.4-0.8,0.8-0.8h16.7c0.5,0,0.8,0.4,0.8,0.8l0,0
				C311.3,387.2,310.9,387.6,310.4,387.6z"/>
			<path fill="#ED7D2B" d="M303,391.5h-9.5c-0.3,0-0.6-0.3-0.6-0.6v-0.4c0-0.3,0.3-0.6,0.6-0.6h9.5c0.3,0,0.6,0.3,0.6,0.6v0.4
				C303.7,391.2,303.4,391.5,303,391.5z"/>
			<path fill="#ED7D2B" d="M322.4,391.5h-15.3c-0.4,0-0.8-0.4-0.8-0.8v0c0-0.4,0.4-0.8,0.8-0.8h15.3c0.4,0,0.8,0.4,0.8,0.8v0
				C323.2,391.1,322.8,391.5,322.4,391.5z"/>
			<path fill="#ED7D2B" d="M336.8,387.6h-21.9c-0.5,0-0.8-0.4-0.8-0.8l0,0c0-0.5,0.4-0.8,0.8-0.8h21.9c0.5,0,0.8,0.4,0.8,0.8l0,0
				C337.6,387.2,337.2,387.6,336.8,387.6z"/>
			<path fill="#ED7D2B" d="M310.4,395.4h-16.7c-0.5,0-0.8-0.4-0.8-0.8l0,0c0-0.5,0.4-0.8,0.8-0.8h16.7c0.5,0,0.8,0.4,0.8,0.8l0,0
				C311.3,395,310.9,395.4,310.4,395.4z"/>
			<path fill="#ED7D2B" d="M336.8,395.4h-21.9c-0.5,0-0.8-0.4-0.8-0.8l0,0c0-0.5,0.4-0.8,0.8-0.8h21.9c0.5,0,0.8,0.4,0.8,0.8l0,0
				C337.6,395,337.2,395.4,336.8,395.4z"/>
		</g>
		<g>
			<path fill="#ED7D2B" d="M310.4,399.5h-16.7c-0.5,0-0.8-0.4-0.8-0.8l0,0c0-0.5,0.4-0.8,0.8-0.8h16.7c0.5,0,0.8,0.4,0.8,0.8l0,0
				C311.3,399.2,310.9,399.5,310.4,399.5z"/>
			<path fill="#ED7D2B" d="M336.8,399.5h-21.9c-0.5,0-0.8-0.4-0.8-0.8l0,0c0-0.5,0.4-0.8,0.8-0.8h21.9c0.5,0,0.8,0.4,0.8,0.8l0,0
				C337.6,399.2,337.2,399.5,336.8,399.5z"/>
		</g>
		<path fill="#ED7D2B" d="M326.1,381.1h-11.7c-0.5,0-0.9-0.4-0.9-0.9v-0.8c0-0.5,0.4-0.9,0.9-0.9h11.7c0.5,0,0.9,0.4,0.9,0.9v0.8
			C327,380.7,326.6,381.1,326.1,381.1z"/>
	</g>
	<g>
		<path fill="#FFFFFF" d="M271.6,268.3l-1.1,0.8l-1.1-0.8c0.2-0.4,0.7-0.6,1.1-0.6S271.3,268,271.6,268.3z"/>
		<g>
			<path fill="#FFFFFF" d="M270.4,265.8c-1.1,0-2.2,0.6-2.8,1.4l0.7,0.5c0.5-0.6,1.2-1.1,2.1-1.1s1.6,0.4,2,1.1l0.7-0.5
				C272.6,266.3,271.6,265.8,270.4,265.8z"/>
		</g>
		<g>
			<path fill="#FFFFFF" d="M270.4,262c-2.4,0-4.5,1.2-5.8,3.1l0.7,0.5c1.1-1.6,3-2.7,5.1-2.7s4,1.1,5.1,2.6l0.7-0.5
				C275,263.2,272.8,262,270.4,262z"/>
		</g>
		<g>
			<path fill="#FFFFFF" d="M270.4,264c-1.7,0-3.3,0.9-4.2,2.2l0.7,0.5c0.8-1.1,2-1.8,3.4-1.8s2.7,0.7,3.4,1.7l0.7-0.5
				C273.7,264.9,272.1,264,270.4,264z"/>
		</g>
	</g>
	<path fill="#FFFFFF" d="M264.1,388.4c0,1.7,0.6,3.2,1.5,4.4c0.3,0.4,0.7,0.8,1.1,1.1c0.4,0.3,0.8,0.6,1.2,0.9
		c1,0.6,2.2,0.9,3.4,0.9c1.5,0,3-0.5,4.2-1.3c0,0,0.1-0.1,0.2-0.1c0.5-0.4,1-0.9,1.4-1.4c1-1.2,1.5-2.8,1.5-4.4c0-4-3.3-7.3-7.3-7.3
		C267.3,381.2,264.1,384.4,264.1,388.4z"/>
	<path fill="#FA0024" d="M273.3,393.1l-0.7-0.6c0,0-0.1,0-0.2,0c-0.1-0.1-0.2-0.2-0.4-0.2c0-0.3,0.1-0.5,0.1-0.8
		c0.1-0.8,0.1-1.2,0.1-1.3c0.3,0,0.6,0,0.6,0c0.7-0.1,0.7-2.4,0.6-3.6c0.1,0,0.2,0,0.4-0.1c0.5-0.2,0.5-1,0.5-1s-0.1,0.3-0.4,0.4
		c0,0,0.9-1.1-0.1-2c-1-0.8-2-0.3-2.5-0.2c-1.2,0.1-2.1,0.1-2.5,1c-0.4,0.8-0.2,3.1,0.5,3.9c0,0.1,0,0.1,0,0.2
		c0,0.3,0.1,0.5,0.3,0.7c-0.2,1-0.6,1.7-0.9,2.2c-0.2,0.2-0.5,0.4-0.7,0.7l0,0l0,0c-0.4,0.5-0.7,1.2-1,2.1l0,0
		c0.4,0.3,0.9,0.5,1.3,0.7c0,0,0,0,0.1,0l0,0c0,0,0.1,0,0.1,0c0.1,0,0.2,0.1,0.4,0.1c0.1,0,0.3,0.1,0.4,0.1c0,0,0.1,0,0.2,0
		c0,0,0.1,0,0.2,0l0,0c0,0,0.1,0,0.1,0c0.1,0,0.2,0,0.2,0h0c0,0,0.1,0,0.1,0c0.1,0,0.1,0,0.2,0c0.1,0,0.1,0,0.2,0c0.1,0,0.1,0,0.2,0
		c0.1,0,0.1,0,0.2,0c0.1,0,0.1,0,0.2,0l0,0h0c0,0,0.1,0,0.1,0l0,0c0.1,0,0.1,0,0.2,0c1-0.1,1.9-0.4,2.7-0.8
		C274.3,394.1,273.8,393.5,273.3,393.1z"/>
	<path fill="#FFFFFF" d="M335.3,430.6c0,1.7,0.6,3.2,1.5,4.4c0.3,0.4,0.7,0.8,1.1,1.1c1.2,1.1,2.9,1.7,4.7,1.7
		c1.6,0,3.2-0.5,4.4-1.4c0.5-0.4,1-0.9,1.4-1.4c1-1.2,1.5-2.8,1.5-4.4c0-4-3.3-7.3-7.3-7.3C338.5,423.3,335.3,426.5,335.3,430.6z"/>
	<path fill="#1A2082" d="M346.3,434.7C346.3,434.7,346.3,434.6,346.3,434.7c-0.1-0.1-0.1-0.1-0.1-0.1l0,0c-0.1-0.1-0.2-0.1-0.4-0.2
		l0,0c-0.6-0.3-1.5-0.4-1.5-0.4c-0.2,0-0.4,0-0.5-0.1c-0.2-0.2-0.6-1-0.6-2.2l0,0c0,0,0.3-0.6,0.6-0.4c0.6,0.3,1.6-1,1.3-2.6
		c0-0.2-0.1-0.3-0.1-0.5c0.1,0,0.2,0.1,0.4,0.1c0.3,0,0.8-0.9,0.9-1.1c0.1-0.3,0-1.2-0.5-1.5c-0.4-0.3-1.1,0-1.1,0
		c0.2-0.3,1-0.2,1.1-0.2c-1.8-0.4-2.2,0.8-2.2,0.9c-1.1-1.1-2.9,0.8-3.3,1.2c0,0,0,0-0.1,0.1c-0.1,0-0.2,0.1-0.3,0.3
		c-0.2,0.3-0.3,0.6-0.3,1c0,0.6,0.2,1.1,0.2,1.1c0.1,1,0.4,2.2,0.9,2.2c0,0,0.1,0,0.4,0c0,0,0,0,0,0c0,0.2,0,0.4,0,0.5v0.1
		c0,0.5,0,1-0.1,1.1c0,0-0.1,0-0.1,0c0,0-0.1,0-0.1,0c-0.4,0-0.7,0.1-0.9,0.1c-0.4,0-0.5,0.1-0.6,0.2c0,0,0,0-0.1,0.1
		c-0.3,0.2-0.8,0.7-1.3,1.7c1.3,1.1,2.9,1.7,4.7,1.7c1.6,0,3.2-0.5,4.4-1.4C346.7,435.7,346.4,435.1,346.3,434.7z"/>
	<path fill="#FFFFFF" d="M335.3,283.9c0,1.7,0.6,3.2,1.5,4.4c0.3,0.4,0.7,0.8,1.1,1.1c1.2,1.1,2.9,1.7,4.7,1.7
		c1.6,0,3.2-0.5,4.4-1.4c0.5-0.4,1-0.9,1.4-1.4c1-1.2,1.5-2.8,1.5-4.4c0-4-3.3-7.3-7.3-7.3C338.5,276.6,335.3,279.9,335.3,283.9z"/>
	<path fill="#FA0024" d="M346.3,288C346.3,288,346.3,288,346.3,288c-0.1-0.1-0.1-0.1-0.1-0.1l0,0c-0.1-0.1-0.2-0.1-0.4-0.2l0,0
		c-0.6-0.3-1.5-0.4-1.5-0.4l0,0c-0.2,0-0.4,0-0.5-0.1c0,0-0.1-0.1-0.2-0.2l0,0c-0.2-0.4-0.4-1.1-0.4-1.9l0,0c0,0,0.3-0.6,0.6-0.4
		c0.6,0.3,1.6-1,1.3-2.6c0-0.2-0.1-0.3-0.1-0.5c0.1,0,0.2,0.1,0.4,0.1c0.3,0,0.8-0.9,0.9-1.1c0.1-0.3,0-1.2-0.5-1.5
		c-0.4-0.3-1.1,0-1.1,0c0.2-0.3,1-0.2,1.1-0.2c-1.8-0.4-2.2,0.8-2.2,0.9c-1.1-1.1-2.9,0.8-3.3,1.2c0,0,0,0-0.1,0.1
		c-0.1,0-0.2,0.1-0.3,0.3c-0.2,0.3-0.3,0.6-0.3,1c0,0.6,0.2,1.1,0.2,1.1c0.1,1,0.4,2.2,0.9,2.2c0,0,0.1,0,0.4,0c0,0,0,0,0,0
		c0,0.2,0,0.4,0,0.5v0.1c0,0.5,0,1-0.1,1.1c0,0-0.1,0-0.1,0c0,0-0.1,0-0.1,0c-0.4,0-0.7,0.1-0.9,0.1c-0.4,0.1-0.5,0.1-0.6,0.2
		c0,0,0,0-0.1,0.1c-0.3,0.2-0.8,0.7-1.3,1.7c0.1,0,0.1,0.1,0.2,0.2c0,0,0,0,0,0c0,0,0.1,0.1,0.2,0.1c0,0,0.1,0,0.1,0.1
		c0,0,0.1,0,0.1,0.1c0,0,0.1,0.1,0.2,0.1c0,0,0.1,0,0.1,0.1c0,0,0.1,0,0.1,0.1c0,0,0.1,0,0.2,0.1l0,0l0,0l0,0l0,0c0,0,0.1,0,0.1,0.1
		l0,0h0c0,0,0,0,0.1,0c0,0,0,0,0.1,0c0,0,0.1,0,0.2,0.1c0,0,0.1,0,0.2,0.1c0,0,0,0,0.1,0c0,0,0,0,0.1,0c0,0,0.1,0,0.2,0
		c0,0,0.1,0,0.2,0c0,0,0.1,0,0.1,0l0,0c0,0,0,0,0.1,0c0.2,0,0.3,0.1,0.5,0.1c0.1,0,0.1,0,0.2,0h0l0,0l0,0c0,0,0.1,0,0.1,0
		c0,0,0,0,0,0l0,0c0,0,0.1,0,0.1,0l0,0h0c0.1,0,0.2,0,0.2,0l0,0c0,0,0,0,0.1,0c0,0,0,0,0,0c0.1,0,0.2,0,0.2,0c1.6,0,3.2-0.5,4.4-1.4
		C346.7,289,346.4,288.4,346.3,288z"/>
</g>
<image overflow="visible" enable-background="new    " width="669" height="575" xlink:href="../../../../../Downloads/1624518142183 (1).png"  transform="matrix(2.517127e-002 0 0 2.215174e-002 331.5271 260.3081)">
</image>
</svg>
