<svg width="131" height="145" viewBox="0 0 131 145" fill="none" xmlns="http://www.w3.org/2000/svg">
<path d="M130.271 70.9179C129.799 69.3896 128.958 67.9942 127.819 66.849C126.95 65.9334 125.834 65.2754 124.599 64.9503C125.204 65.8837 125.751 66.9607 126.16 68.1096C126.618 69.2824 126.912 70.5349 127.002 71.8354C127.14 72.9589 127.14 74.0945 127.002 75.2181C126.747 74.3853 126.355 73.5985 125.841 72.8885C124.829 71.5532 123.477 70.4998 121.918 69.8328C120.192 69.0741 118.239 68.9655 116.436 69.5282C114.632 70.0909 113.106 71.285 112.151 72.8805C111.742 73.5347 111.415 74.2447 111.17 75.0027C101.509 59.3018 84.1247 48.9063 64.2472 48.9063C63.2337 48.9063 62.2284 48.9302 61.2313 48.9861C55.0644 48.9973 48.9286 49.8376 42.9966 51.4832C42.4899 48.0207 37.8311 41 16.417 41L22.9557 61.025C18.8441 64.2692 15.3877 68.2328 12.7636 72.7129L0.070445 72.9124C0.070445 72.9124 -1.31902 104.825 8.24375 104.825H12.6573C15.662 109.796 19.6821 114.111 24.4677 117.502L24.5903 136.737H33.4175C44.1245 136.737 49.1103 136.737 49.1103 130.754V127.642C57.3544 129.133 65.811 129.112 74.047 127.578L73.6302 130.754C73.6302 136.737 78.6976 136.737 89.4864 136.737H98.1501V117.67C105.814 112.483 111.33 104.796 113.704 95.993C114.17 95.7776 114.636 95.8016 115.11 95.8016C115.584 95.8016 116.05 95.7776 116.515 95.7218C118.567 95.3548 120.439 94.5729 122.065 93.464C124.263 91.9459 125.946 89.8203 126.896 87.3607C127.124 86.6188 127.296 85.8369 127.41 85.0311L127.419 84.9513C129.225 82.8611 130.459 80.2443 130.843 77.3642C131.177 75.1634 130.976 72.9168 130.255 70.8062L130.271 70.9179ZM28.7587 70.9179C30.3845 70.9179 31.9437 71.5483 33.0933 72.6704C34.2429 73.7926 34.8887 75.3145 34.8887 76.9014C34.8887 78.4884 34.2429 80.0103 33.0933 81.1325C31.9437 82.2546 30.3845 82.885 28.7587 82.885C27.133 82.885 25.5738 82.2546 24.4242 81.1325C23.2746 80.0103 22.6288 78.4884 22.6288 76.9014C22.6288 75.3145 23.2746 73.7926 24.4242 72.6704C25.5738 71.5483 27.133 70.9179 28.7587 70.9179ZM48.1295 64.9343C47.2064 65.2233 46.2084 65.1839 45.3122 64.8232C44.4161 64.4625 43.6797 63.8038 43.2337 62.9637C43.0946 62.5451 43.0481 62.1025 43.0973 61.6651C43.1464 61.2276 43.29 60.8053 43.5187 60.4261C43.7473 60.0468 44.0557 59.7192 44.4237 59.4649C44.7916 59.2106 45.2105 59.0353 45.653 58.9507C51.0287 57.6925 56.5458 57.1027 62.0731 57.1955L62.8986 57.1876C68.3911 57.1876 73.7201 57.8258 78.8284 59.0385C79.8582 59.23 80.9698 60.4905 80.9698 62.0063C80.9694 62.3288 80.917 62.6492 80.8145 62.9557C80.5283 63.473 80.1247 63.9195 79.6346 64.2611C79.1444 64.6026 78.5807 64.8302 77.9865 64.9263H76.736C72.17 63.8531 67.4888 63.3174 62.7924 63.3307H62.0649C57.1201 63.3307 52.3142 63.9131 47.7126 65.0141L48.1295 64.9343ZM119.237 88.3101C118.134 89.0931 116.871 89.6346 115.535 89.8978L114.497 89.9058V88.8686V86.3954C115.845 87.3926 117.553 87.991 119.401 87.991H119.572L119.237 88.3101ZM119.891 82.885C119.131 82.9889 118.357 82.853 117.682 82.497C117.007 82.1411 116.467 81.5837 116.14 80.9065C115.765 80.2098 115.57 79.4345 115.571 78.6477C115.573 77.8609 115.771 77.0863 116.148 76.3908C116.536 75.8658 117.108 75.498 117.756 75.3568C118.404 75.2157 119.082 75.3111 119.662 75.625C120.403 75.9024 121.04 76.3925 121.489 77.0306C121.939 77.6687 122.179 78.4248 122.18 79.1991V79.2071C122.341 80.3133 122.338 81.4365 122.171 82.542C121.412 82.6847 120.639 82.7436 119.867 82.7175L119.891 82.885Z" fill="#FFA500"/>
<path d="M65.5 27.1873H57.3125V25.6467H59.3594V15.7686H57.3125L61.8156 10.7842H63.4531V25.6467H65.5V27.1873Z" fill="#FFA500"/>
<path d="M61.4062 6.79688C63.0196 6.79747 64.617 7.14979 66.1073 7.83372C67.5977 8.51764 68.9517 9.51979 70.0921 10.7829C71.2325 12.0461 72.137 13.5455 72.7539 15.1955C73.3708 16.8456 73.688 18.6139 73.6875 20.3997C73.687 22.1854 73.3687 23.9536 72.7508 25.6032C72.1329 27.2528 71.2275 28.7515 70.0863 30.0138C68.9451 31.2761 67.5905 32.2772 66.0998 32.9601C64.609 33.6429 63.0114 33.994 61.3981 33.9934C58.1398 33.9922 55.0154 32.5584 52.7122 30.0074C50.409 27.4564 49.1157 23.9971 49.1168 20.3906C49.1179 16.7841 50.4133 13.3258 52.718 10.7765C55.0227 8.22719 58.148 6.79567 61.4062 6.79688ZM61.4062 0C56.5205 0 51.8348 2.14829 48.38 5.97228C44.9252 9.79626 42.9844 14.9827 42.9844 20.3906C42.9844 25.7986 44.9252 30.985 48.38 34.809C51.8348 38.633 56.5205 40.7812 61.4062 40.7812C66.292 40.7812 70.9777 38.633 74.4325 34.809C77.8873 30.985 79.8281 25.7986 79.8281 20.3906C79.8281 14.9827 77.8873 9.79626 74.4325 5.97228C70.9777 2.14829 66.292 0 61.4062 0V0Z" fill="#FFA500"/>
</svg>
