<svg width="44" height="37" viewBox="0 0 44 37" fill="none" xmlns="http://www.w3.org/2000/svg">
<ellipse cx="22" cy="18.5" rx="22" ry="18.5" fill="#003975"/>
<path d="M19 6L25 3V30L19 33V6Z" fill="#ED1C24"/>
<path d="M6.07583 17.3846C6.48815 13.6923 8.65284 10 13.8069 10C15.2288 10 17.6315 10.5269 18.9856 12.3077V15.0145C17.7964 14.4356 15.9215 13.6923 13.8069 13.6923C10.1991 13.6923 8.13744 15.5385 7.62204 17.3846C6.84894 20.1538 8.65284 22.9231 12.7761 22.9231C16.8993 22.9231 24.6303 10 30.8152 10C35.763 10 37.5 14.9231 37.5 17.3846H36.4692C35.9538 16.4615 33.9076 15.0769 30.8152 15.5385C26.128 16.238 19.9917 28 13.8069 28C7.62204 28 5.56043 22 6.07583 17.3846Z" fill="white"/>
<path d="M30.8152 28C34.9384 28 37.5 24.3077 37.5 20.1538H36.4692C35.2231 21.8779 32.9878 23.8462 30.8152 23.8462C28.5964 23.8462 26.3776 23.1619 25.1457 22.3825V24.3145C25.863 26.0572 27.4713 28 30.8152 28Z" fill="white"/>
</svg>
