<svg xmlns="http://www.w3.org/2000/svg" viewBox="0 0 120 120"><defs><style>.cls-1{fill:#fff;}.cls-2{fill:#2a2552;}</style></defs><g id="Layer_2" data-name="Layer 2"><g id="Layer_1-2" data-name="Layer 1"><circle class="cls-1" cx="60" cy="60" r="60"/><path class="cls-2" d="M87.18,40.1a3.51,3.51,0,0,1-1.26,2.69L69,57a2.62,2.62,0,0,0-.32,3.7L82.87,77.65a3.51,3.51,0,0,1-.43,4.94,3.46,3.46,0,0,1-2.26.82,3.53,3.53,0,0,1-2.69-1.25L59.43,60.64a3.45,3.45,0,0,1-.79-2.45v0a1.56,1.56,0,0,1,0-.31,3.44,3.44,0,0,1,1.23-2.38L81.41,37.41a3.52,3.52,0,0,1,5.77,2.69Z"/><path class="cls-2" d="M61.37,40.1a3.51,3.51,0,0,1-1.26,2.69L43.17,57a2.62,2.62,0,0,0-.32,3.7L57.06,77.65a3.5,3.5,0,0,1-2.69,5.76,3.53,3.53,0,0,1-2.69-1.25L33.62,60.64a3.49,3.49,0,0,1-.79-2.45v0a1.56,1.56,0,0,1,0-.31,3.44,3.44,0,0,1,1.23-2.38L55.6,37.41a3.51,3.51,0,0,1,5.77,2.69Z"/></g></g></svg>