<svg width="32" height="33" viewBox="0 0 32 33" fill="none" xmlns="http://www.w3.org/2000/svg">
<path d="M29 28.7891H29.5V28.2891V5.28906V4.78906H29H3H2.5V5.28906V28.2891V28.7891H3H29ZM2.50033 3.78906H29.4997C29.7649 3.78944 30.0191 3.89495 30.2066 4.08247C30.3942 4.27005 30.4997 4.52437 30.5 4.78965V28.7885C30.4997 29.0538 30.3942 29.3081 30.2066 29.4957C30.019 29.6832 29.7647 29.7888 29.4994 29.7891H2.50058C2.23531 29.7888 1.98098 29.6832 1.7934 29.4957C1.60589 29.3081 1.50038 29.0539 1.5 28.7887V4.78939C1.50038 4.52421 1.60589 4.26999 1.7934 4.08247C1.98092 3.89495 2.23514 3.78944 2.50033 3.78906Z" fill="#08090C" stroke="#08090C"/>
<path d="M11.5 12.7891H11V13.2891V15.2891H10V13.2891V12.7891H9.5H7.5V11.7891H9.5H10V11.2891V9.28906H11V11.2891V11.7891H11.5H13.5V12.7891H11.5Z" fill="#08090C" stroke="#08090C"/>
<path d="M11.5609 22.1429L12.9751 23.5571L12.2681 24.2642L10.8539 22.85L10.5003 22.4964L10.1467 22.85L8.73255 24.2642L8.02547 23.5571L9.43967 22.1429L9.79322 21.7894L9.43967 21.4358L8.02547 20.0216L8.73255 19.3145L10.1467 20.7287L10.5003 21.0823L10.8539 20.7287L12.2681 19.3145L12.9751 20.0216L11.5609 21.4358L11.2074 21.7894L11.5609 22.1429Z" fill="#08090C" stroke="#08090C"/>
<path d="M18.5 11.7891H24.5V12.7891H18.5V11.7891Z" fill="#08090C" stroke="#08090C"/>
<path d="M18.5 19.2891H24.5V20.2891H18.5V19.2891Z" fill="#08090C" stroke="#08090C"/>
<path d="M18.5 23.2891H24.5V24.2891H18.5V23.2891Z" fill="#08090C" stroke="#08090C"/>
</svg>
