<svg width="265" height="648" viewBox="0 0 265 648" fill="none" xmlns="http://www.w3.org/2000/svg">
<g opacity="0.05">
<path d="M39.7404 122.504C61.1711 122.504 75.5656 103.92 75.5656 77.709C75.5656 51.4443 61.1711 32.8604 39.7404 32.8604C18.2561 32.8604 3.80782 51.4443 3.80782 77.709C3.80782 103.92 18.2561 122.504 39.7404 122.504ZM39.633 104.94C28.3537 104.94 21.1564 93.6611 21.1564 77.709C21.1564 61.7031 28.3537 50.3701 39.633 50.3701C50.9123 50.3701 58.1096 61.7031 58.1096 77.709C58.1096 93.6611 50.9123 104.94 39.633 104.94ZM114.096 103.651C126.503 94.7354 140.951 77.6553 140.951 63.4219C140.951 47.416 127.416 32.8604 110.766 32.8604C94.4912 32.8604 80.7412 45.6436 80.7412 61.3271L96.5322 65.3555C96.5322 57.0303 103.461 50.2627 111.356 50.2627C116.835 50.2627 123.495 56.1172 123.495 64.335C123.495 73.6807 108.939 88.9346 77.0352 117.831V121H142.187V103.651H114.096Z" fill="#2A2552"/>
<circle opacity="0.5" cx="175.277" cy="113.118" r="13.8991" fill="#2A2552"/>
<circle opacity="0.5" cx="175.277" cy="47.8991" r="13.8991" fill="#2A2552"/>
<circle opacity="0.25" cx="250.966" cy="113.118" r="13.8991" fill="#2A2552"/>
<circle opacity="0.25" cx="250.966" cy="47.8991" r="13.8991" fill="#2A2552"/>
<circle cx="23.8991" cy="243.118" r="13.8991" fill="#2A2552"/>
<circle cx="23.8991" cy="177.899" r="13.8991" fill="#2A2552"/>
<circle opacity="0.75" cx="99.5883" cy="243.118" r="13.8991" fill="#2A2552"/>
<circle opacity="0.75" cx="99.5883" cy="177.899" r="13.8991" fill="#2A2552"/>
<circle opacity="0.5" cx="175.277" cy="243.118" r="13.8991" fill="#2A2552"/>
<circle opacity="0.5" cx="175.277" cy="177.899" r="13.8991" fill="#2A2552"/>
<circle opacity="0.25" cx="250.966" cy="243.118" r="13.8991" fill="#2A2552"/>
<circle opacity="0.25" cx="250.966" cy="177.899" r="13.8991" fill="#2A2552"/>
<circle cx="23.8991" cy="373.118" r="13.8991" fill="#2A2552"/>
<circle cx="23.8991" cy="307.899" r="13.8991" fill="#2A2552"/>
<circle cx="23.8991" cy="503.118" r="13.8991" fill="#2A2552"/>
<circle cx="23.8991" cy="437.899" r="13.8991" fill="#2A2552"/>
<circle cx="23.8991" cy="633.118" r="13.8991" fill="#2A2552"/>
<circle cx="23.8991" cy="567.899" r="13.8991" fill="#2A2552"/>
<circle opacity="0.75" cx="99.5883" cy="633.118" r="13.8991" fill="#2A2552"/>
<circle opacity="0.75" cx="99.5883" cy="567.899" r="13.8991" fill="#2A2552"/>
<circle opacity="0.5" cx="175.277" cy="633.118" r="13.8991" fill="#2A2552"/>
<circle opacity="0.5" cx="175.277" cy="567.899" r="13.8991" fill="#2A2552"/>
<circle opacity="0.25" cx="250.966" cy="633.118" r="13.8991" fill="#2A2552"/>
<circle opacity="0.25" cx="250.966" cy="567.899" r="13.8991" fill="#2A2552"/>
</g>
</svg>
